<svg xmlns="http://www.w3.org/2000/svg" width="33.4" height="22.962" viewBox="0 0 33.4 22.962">
  <g id="email" transform="translate(0 -80)">
    <g id="Group_81" data-name="Group 81" transform="translate(22.14 84.233)">
      <g id="Group_80" data-name="Group 80">
        <path id="Path_238" data-name="Path 238" d="M339.392,152.315l11.26,7.118V144.9Z" transform="translate(-339.392 -144.896)" fill="#313131"/>
      </g>
    </g>
    <g id="Group_83" data-name="Group 83" transform="translate(0 84.233)">
      <g id="Group_82" data-name="Group 82">
        <path id="Path_239" data-name="Path 239" d="M0,144.9v14.537l11.26-7.118Z" transform="translate(0 -144.896)" fill="#313131"/>
      </g>
    </g>
    <g id="Group_85" data-name="Group 85" transform="translate(0.063 80)">
      <g id="Group_84" data-name="Group 84" transform="translate(0 0)">
        <path id="Path_240" data-name="Path 240" d="M32.21,80H2.985A2.062,2.062,0,0,0,.96,81.776L17.6,92.738,34.235,81.776A2.062,2.062,0,0,0,32.21,80Z" transform="translate(-0.96 -80)" fill="#313131"/>
      </g>
    </g>
    <g id="Group_87" data-name="Group 87" transform="translate(0.067 92.911)">
      <g id="Group_86" data-name="Group 86">
        <path id="Path_241" data-name="Path 241" d="M21.185,277.922l-2.954,1.946a1.048,1.048,0,0,1-1.148,0l-2.954-1.948L1.024,286.209a2.058,2.058,0,0,0,2.021,1.762H32.27a2.058,2.058,0,0,0,2.021-1.762Z" transform="translate(-1.024 -277.92)" fill="#313131"/>
      </g>
    </g>
  </g>
</svg>
