<svg xmlns="http://www.w3.org/2000/svg" width="856.973" height="510.426" viewBox="0 0 856.973 510.426">
  <g id="undraw_junior_soccer_6sop" opacity="0.75">
    <path id="Path_19" data-name="Path 19" d="M585.513,699.852c3.119-3.939,7.232,3.9,11.346,1h-22.8C578.7,703.429,582.324,695.642,585.513,699.852Z" transform="translate(-171.513 -194.787)" fill="none"/>
    <path id="Path_20" data-name="Path 20" d="M660.47,700.852h-3.93c.844.593,1.691,1.184,2.5,1.825C659.5,702.054,659.989,701.458,660.47,700.852Z" transform="translate(-171.513 -194.787)" fill="none"/>
    <path id="Path_21" data-name="Path 21" d="M555.814,696.125a37.625,37.625,0,0,0-18.293,4.727h36.54A37.459,37.459,0,0,0,555.814,696.125Z" transform="translate(-171.513 -194.787)" fill="#e6e6e6"/>
    <path id="Path_22" data-name="Path 22" d="M626.719,691.4a51.693,51.693,0,0,0-29.86,9.454h59.68a51.681,51.681,0,0,0-29.82-9.454Z" transform="translate(-171.513 -194.787)" fill="#e6e6e6"/>
    <path id="Path_23" data-name="Path 23" d="M1028.36,631.558c-2.67-48.412-41.566-87.883-89.938-91.191a96.924,96.924,0,0,0-100.183,70.761c-1.174-.042-2.347-.089-3.531-.089a96.921,96.921,0,0,0-92.971,69.583,68.484,68.484,0,0,0-81.267,20.23H962.742c37.136,0,67.2-30.759,65.69-67.864Q1028.4,632.274,1028.36,631.558Z" transform="translate(-171.513 -194.787)" fill="#e6e6e6"/>
    <rect id="Rectangle_2" data-name="Rectangle 2" width="849" height="2" transform="translate(0 505.065)" fill="#3f3d56"/>
    <path id="Path_24" data-name="Path 24" d="M454.857,375.025s-38.535-12-32.619,7.745,38.373,9.773,38.373,9.773Z" transform="translate(-171.513 -194.787)" fill="#ffb8b8"/>
    <path id="Path_25" data-name="Path 25" d="M602.159,300.9s-19.748-26.987-38.935,1.029c-19.224,28.071-37.1,51.115-37.1,51.115l-47.746,15.568-27.622,2.451,7.609,24.558,80.314-11.651S628.095,330.856,602.159,300.9Z" transform="translate(-171.513 -194.787)" fill="#2f2e41"/>
    <path id="Path_26" data-name="Path 26" d="M514.013,450.352s-30,21-28,40,15,71,15,71l27-4s3-40-7-55l48-27Z" transform="translate(-171.513 -194.787)" fill="#ffb8b8"/>
    <path id="Path_27" data-name="Path 27" d="M580.513,499.852s-2,37,3,52,10,71,10,71h28s13-49-3-71c0,0-5-29,9-43Z" transform="translate(-171.513 -194.787)" fill="#ffb8b8"/>
    <path id="Path_28" data-name="Path 28" d="M574.013,397.352s-65,41-65,54l52,43,18-20-2,30,56,11s20-76,19-79-4-47-4-47Z" transform="translate(-171.513 -194.787)" fill="#2f2e41"/>
    <path id="Path_29" data-name="Path 29" d="M528.013,552.352l-29,6,5.152,21.182a75.641,75.641,0,0,1,.848,31.818h0s30,8,30,4-7-20-5-31S528.013,552.352,528.013,552.352Z" transform="translate(-171.513 -194.787)" fill="#00bfa6"/>
    <path id="Path_30" data-name="Path 30" d="M543.013,627.352c-1-4-9.308-22.136-9.654-19.068s-16.346,8.068-22.346,2.068c0,0-8-7-11,0s-9,19-9,19-27,13-23,20c.809,1.416,3.05,2.013,6.111,2.065a1.635,1.635,0,0,0-.111.58v.709a1.646,1.646,0,0,0,1.646,1.646h.709a1.646,1.646,0,0,0,1.646-1.646V652a1.627,1.627,0,0,0-.18-.733c.818-.072,1.666-.166,2.539-.281a1.631,1.631,0,0,0-.359,1.015v.709a1.646,1.646,0,0,0,1.646,1.646h.709a1.646,1.646,0,0,0,1.646-1.646V652a1.638,1.638,0,0,0-.851-1.433c2.3-.384,4.7-.873,7.093-1.415a1.631,1.631,0,0,0-.241.847v.709a1.646,1.646,0,0,0,1.646,1.646h.709a1.646,1.646,0,0,0,1.646-1.646V650a1.644,1.644,0,0,0-.978-1.5c1.792-.437,3.548-.892,5.219-1.344a1.63,1.63,0,0,0-.241.845v.709a1.646,1.646,0,0,0,1.646,1.646h.709a1.646,1.646,0,0,0,1.646-1.646V648a1.64,1.64,0,0,0-1.157-1.563c5.873-1.654,10.157-3.082,10.157-3.082s4.976-1.81,11-4.256v.611a1.646,1.646,0,0,0,1.646,1.646h.709a1.646,1.646,0,0,0,1.646-1.646V639a1.636,1.636,0,0,0-.636-1.291c1.21-.508,2.43-1.031,3.636-1.563v.563a1.646,1.646,0,0,0,1.646,1.646h.709a1.646,1.646,0,0,0,1.646-1.646V636a1.641,1.641,0,0,0-.7-1.347c1.3-.609,2.562-1.217,3.721-1.813-.005.053-.016.1-.016.16v.709a1.646,1.646,0,0,0,1.646,1.646h.709a1.646,1.646,0,0,0,1.646-1.646V633a1.646,1.646,0,0,0-1.317-1.612C541.492,629.761,543.255,628.321,543.013,627.352Z" transform="translate(-171.513 -194.787)" fill="#2f2e41"/>
    <path id="Path_31" data-name="Path 31" d="M623.513,618.352l-31.68-2s1.92,33-1.92,44-1.92,15-1.92,15l27.84,2Z" transform="translate(-171.513 -194.787)" fill="#00bfa6"/>
    <path id="Path_32" data-name="Path 32" d="M623.9,691.286c-.144-4.121-4.488-23.59-5.466-20.662s-17.669,4.482-22.286-2.637c0,0-6.365-8.514-10.758-2.294S572.629,682.4,572.629,682.4s-29.117,7.085-26.665,14.765c.5,1.553,2.564,2.6,5.546,3.294a1.634,1.634,0,0,0-.229.544l-.148.693a1.646,1.646,0,0,0,1.266,1.953l.693.148a1.646,1.646,0,0,0,1.953-1.266l.148-.693a1.627,1.627,0,0,0-.023-.755c.815.1,1.664.185,2.541.255a1.63,1.63,0,0,0-.563.917l-.148.693a1.646,1.646,0,0,0,1.266,1.953l.693.148a1.646,1.646,0,0,0,1.953-1.266l.148-.693a1.638,1.638,0,0,0-.534-1.579c2.331.1,4.783.127,7.232.1a1.631,1.631,0,0,0-.413.778l-.148.693a1.646,1.646,0,0,0,1.266,1.953l.693.148a1.646,1.646,0,0,0,1.953-1.266l.148-.693a1.644,1.644,0,0,0-.644-1.673c1.843-.054,3.656-.133,5.384-.226a1.63,1.63,0,0,0-.411.777l-.148.693a1.646,1.646,0,0,0,1.266,1.953l.693.148a1.646,1.646,0,0,0,1.953-1.266l.148-.693a1.64,1.64,0,0,0-.806-1.77c6.089-.393,10.577-.9,10.577-.9s5.244-.733,11.646-1.869l-.127.6a1.646,1.646,0,0,0,1.266,1.953l.693.148a1.646,1.646,0,0,0,1.953-1.266l.148-.693a1.636,1.636,0,0,0-.353-1.4c1.289-.245,2.591-.5,3.882-.77l-.117.55a1.646,1.646,0,0,0,1.266,1.953l.693.148a1.646,1.646,0,0,0,1.953-1.266l.148-.693a1.641,1.641,0,0,0-.408-1.464c1.4-.323,2.759-.656,4.017-1-.016.051-.038.1-.049.153l-.148.693A1.646,1.646,0,0,0,617,697.994l.693.148a1.646,1.646,0,0,0,1.953-1.266l.148-.693a1.646,1.646,0,0,0-.952-1.852C621.913,693.326,623.938,692.285,623.9,691.286Z" transform="translate(-171.513 -194.787)" fill="#2f2e41"/>
    <circle id="Ellipse_4" data-name="Ellipse 4" cx="29" cy="29" r="29" transform="translate(373.5 14.565)" fill="#ffb8b8"/>
    <path id="Path_33" data-name="Path 33" d="M600.013,235.352s16,20,24,19l-35,27s-4-17-9-19S600.013,235.352,600.013,235.352Z" transform="translate(-171.513 -194.787)" fill="#ffb8b8"/>
    <path id="Path_34" data-name="Path 34" d="M662.513,383.852S662.511,273.505,644,264s-30.738-14.922-30.738-14.922h0a25.958,25.958,0,0,1-9.98,18.567c-6.134,4.736-12.245,8.663-15.659,8.675l-.11-.468-.416-1.189-10.084,15.689s-9,2-12,8c-1.623,3.246,6.031,35.923,1.5,65.5-3.844,25.094-20.041,47.746-20.5,50.5-.776,4.655,18.91-7.542,27.775-13.244.131.146.225.244.225.244s-5,2,5-1c5.666-1.7,13.577-1.794,19.372-1.557-.007,1.737.034,3.118.128,4.057,1,10,51,24,58,21S662.513,383.852,662.513,383.852Z" transform="translate(-171.513 -194.787)" fill="#2f2e41"/>
    <path id="Path_35" data-name="Path 35" d="M627.513,421.852s-30,27-10,32,28-28,28-28Z" transform="translate(-171.513 -194.787)" fill="#ffb8b8"/>
    <path id="Path_36" data-name="Path 36" d="M592.513,491.852s14-13,22-6,13,12,13,12S604.513,483.852,592.513,491.852Z" transform="translate(-171.513 -194.787)" fill="#00bfa6"/>
    <path id="Path_37" data-name="Path 37" d="M596.15,647.4s7.891-7.327,12.4-3.382,7.327,6.764,7.327,6.764S602.913,642.891,596.15,647.4Z" transform="translate(-171.513 -194.787)" fill="#2f2e41"/>
    <path id="Path_38" data-name="Path 38" d="M507.746,579.246s5.417-9.307,10.879-6.844,8.979,4.338,8.979,4.338S512.905,572.963,507.746,579.246Z" transform="translate(-171.513 -194.787)" fill="#2f2e41"/>
    <path id="Path_39" data-name="Path 39" d="M654.957,277.721c-9.913-19.926-40.074-9.058-35.173,12.651q.11.485.23.98a197.35,197.35,0,0,0,25,58l-11,49-12,25,25,6,31-75S669.462,306.879,654.957,277.721Z" transform="translate(-171.513 -194.787)" fill="#2f2e41"/>
    <path id="Path_40" data-name="Path 40" d="M469,156.065l-19,72,16-34Z" transform="translate(0 0)" opacity="0.2"/>
    <path id="Path_41" data-name="Path 41" d="M592.226,204.548S576.2,187.672,560.06,198.3s-23.789,20.952-22.207,28.141,6.264,17.188,6.264,17.188-2.91-14.893,10.451-15.995,31.819-9.944,31.819-9.944l12.486,26.664s1.765-6.179,6.659-4.407S606.632,206.525,592.226,204.548Z" transform="translate(-171.513 -194.787)" fill="#2f2e41"/>
    <path id="Path_42" data-name="Path 42" d="M489.513,585.852a45.911,45.911,0,0,1-.63,7.56v.01a45.011,45.011,0,0,1-62.24,33.73h-.01a43.9,43.9,0,0,1-5.37-2.77,45.067,45.067,0,0,1-20.88-29.65,45.555,45.555,0,0,1-.87-8.88c0-1.36.06-2.71.18-4.04v-.01a45,45,0,0,1,89.81,3.43v.01C489.513,585.452,489.513,585.642,489.513,585.852Z" transform="translate(-171.513 -194.787)" fill="#00bfa6"/>
    <path id="Path_43" data-name="Path 43" d="M455.59,570.822H435.436l-10.078-17.45,6.835-11.848.4-.107a46.155,46.155,0,0,1,26.3.735l.362.12,6.41,11.1Zm-19-2h17.846l8.922-15.45-5.449-9.437a44.354,44.354,0,0,0-24.4-.691l-5.843,10.129Z" transform="translate(-171.513 -194.787)" fill="#fff"/>
    <path id="Path_44" data-name="Path 44" d="M454.59,606.823H434.436l-10.078-17.454,10.078-17.455H454.59l10.078,17.454Zm-19-2h17.846l8.922-15.454-8.922-15.455H435.59l-8.922,15.454Z" transform="translate(-171.513 -194.787)" fill="#fff"/>
    <path id="Path_45" data-name="Path 45" d="M444.513,631.852a45.582,45.582,0,0,1-18.269-3.783l-1.028-.446,10.219-17.711H455.59l9.788,16.955-.972.467a45.571,45.571,0,0,1-19.893,4.518Zm-16.437-5.184a44.049,44.049,0,0,0,34.485-.682l-8.125-14.075H436.591Z" transform="translate(-171.513 -194.787)" fill="#fff"/>
    <path id="Path_46" data-name="Path 46" d="M488.59,588.822H468.436l-10.078-17.45,10.077-17.46h9.177l.3.312a45.78,45.78,0,0,1,12.594,31v.29Zm-19-2h17.846l1.063-1.841a43.778,43.778,0,0,0-11.749-29.069h-7.16l-8.923,15.46Z" transform="translate(-171.513 -194.787)" fill="#fff"/>
    <path id="Path_47" data-name="Path 47" d="M468.158,625.333l-9.8-16.962,10.077-17.46h20.154l1.294,2.23-.014.447a46.1,46.1,0,0,1-20.832,31.188Zm-7.49-16.962,8.175,14.148A44.09,44.09,0,0,0,487.837,593.6l-.4-.689H469.591Z" transform="translate(-171.513 -194.787)" fill="#fff"/>
    <path id="Path_48" data-name="Path 48" d="M421.619,625.765l-.873-.527a46.115,46.115,0,0,1-21.343-30.31l-.074-.37,2.107-3.646h20.155l10.077,17.46ZM401.439,594.9a44.112,44.112,0,0,0,19.474,28.086l8.445-14.617-8.923-15.46H402.59Z" transform="translate(-171.513 -194.787)" fill="#fff"/>
    <path id="Path_49" data-name="Path 49" d="M421.59,586.822H401.436l-2.743-4.741v-.269a45.861,45.861,0,0,1,14.489-29.633l.288-.268h8.121l10.077,17.46Zm-19-2h17.846l8.922-15.45-8.923-15.46h-6.176a43.818,43.818,0,0,0-13.542,27.674Z" transform="translate(-171.513 -194.787)" fill="#fff"/>
  </g>
</svg>
