<svg id="undraw_goal_0v5v" xmlns="http://www.w3.org/2000/svg" xmlns:xlink="http://www.w3.org/1999/xlink" width="873.515" height="609.777" viewBox="0 0 873.515 609.777">
  <defs>
    <linearGradient id="linear-gradient" x1="2024.027" y1="1" x2="2024.027" gradientUnits="objectBoundingBox">
      <stop offset="0" stop-color="gray" stop-opacity="0.251"/>
      <stop offset="0.54" stop-color="gray" stop-opacity="0.122"/>
      <stop offset="1" stop-color="gray" stop-opacity="0.102"/>
    </linearGradient>
    <linearGradient id="linear-gradient-2" x1="-0.328" y1="1" x2="-0.328" y2="0" xlink:href="#linear-gradient"/>
    <linearGradient id="linear-gradient-3" x1="-1.465" y1="1" x2="-1.465" y2="0" xlink:href="#linear-gradient"/>
    <linearGradient id="linear-gradient-4" x1="13.984" y1="1" x2="13.984" y2="0" xlink:href="#linear-gradient"/>
    <linearGradient id="linear-gradient-5" x1="14.718" y1="1" x2="14.718" y2="0" xlink:href="#linear-gradient"/>
  </defs>
  <path id="Path_50" data-name="Path 50" d="M28.1,103.361c2.839,24.128,22.754,43.233,27.478,67.063a65.025,65.025,0,0,1,1.084,9.465c.679,13.686-2.03,27.654-.634,41.363,2.6,25.708,18.227,45.8,38.065,63.208,15.006,13.136,32.424,24.692,48.446,35.875,40.79,28.494,79.046,64.467,95.8,111.318,11.167,31.241,12.022,65.192,20.22,97.342s26.868,65.047,58.422,75.3c33.867,11.007,71.184-7.343,106.036-.092,37.4,7.786,63.925,43.133,100.83,53.117,46.889,12.686,93.617-18.487,141.75-24.982,23.112-3.122,46.637-.473,69.871-2.473a175.617,175.617,0,0,0,73.329-23.3c7.633-4.48,15.35-9.984,18.9-18.12,3.053-7.03,2.588-15.044,1.649-22.654-3.511-28.242-12.4-58.941,1.58-83.763,12.892-22.9,44.133-39.279,39.5-65.131-2.786-15.563-18.082-25.28-32.264-32.249-29.249-14.373-60.407-25.624-86.549-45.034-18.7-13.907-34.806-33.31-41.676-55.132a73.515,73.515,0,0,1-3.419-27.051c.962-14.426,5.954-30.623-2.748-42.172-3.771-5.007-9.549-8.083-15.357-10.434-21.906-8.854-46.24-9.366-69.017-15.655a95.2,95.2,0,0,1-22.334-9.282c-13.892-8.045-25.074-19.9-27.776-35.371-1.58-9.068-.176-18.968-4.7-26.982C556.948,103.949,541.858,98.27,525,96.423c-20.861-2.29-44.484,1.29-60.3,3.053l-1.58.168c-20.311,2.114-40.454-2.381-60.246-9.159-21.372-7.259-42.263-17.136-62.59-24.158q-2.862-.992-5.709-1.9a292.341,292.341,0,0,0-45.431-10.572,297.012,297.012,0,0,0-65.643-2.534,291.213,291.213,0,0,0-33.111,4.3q-4.824.916-9.633,1.962c-18.639,3.992-37.18,8.869-56.193,9.159h-4.106c-22.677-.389-45.866-6.152-67.383.809C43.294,70.738,33.913,77,29.974,86.492A33.879,33.879,0,0,0,28.1,103.361Z" transform="translate(-27.795 -50.545)" fill="#00bfa6"/>
  <path id="Path_51" data-name="Path 51" d="M65.292,192.772H84.886a25.952,25.952,0,0,1,17.052-22.9,18.319,18.319,0,1,1,17.67,0,25.952,25.952,0,0,1,17.052,22.9h.168a25.952,25.952,0,0,1,17.006-22.135,18.319,18.319,0,1,1,26.845-19.4,25.9,25.9,0,0,1,7.5-4.267,18.319,18.319,0,1,1,17.67,0A25.952,25.952,0,0,1,222.965,171.4v21.372h8.4V175.98a25.952,25.952,0,0,1,17.113-24.425,18.319,18.319,0,1,1,17.67,0A26.028,26.028,0,0,1,281.1,165.63a26.02,26.02,0,0,1,12.426-9.5,18.319,18.319,0,1,1,17.67,0A26.036,26.036,0,0,1,324.5,167v-3.229a25.952,25.952,0,0,1,17.113-24.425,18.319,18.319,0,1,1,17.67,0,25.952,25.952,0,0,1,17.113,24.425v29h9.159a26.021,26.021,0,0,1,14.8-13.739,18.319,18.319,0,1,1,17.67,0,25.853,25.853,0,0,1,5.16,2.557,25.952,25.952,0,0,1,16.9-20.876,18.319,18.319,0,1,1,17.67,0,26.005,26.005,0,0,1,16.029,17.1,25.952,25.952,0,0,1,10.549-7.175,18.319,18.319,0,1,1,17.67,0,25.9,25.9,0,0,1,7.694,4.427,26.028,26.028,0,0,1,15.113-14.35,18.319,18.319,0,1,1,17.67,0A25.952,25.952,0,0,1,559.59,185.14v7.633h46.1a95.206,95.206,0,0,0,22.326,9.274c22.776,6.289,47.11,6.8,69.016,15.655,5.809,2.351,11.587,5.427,15.357,10.434,8.7,11.549,3.71,27.746,2.748,42.172a73.511,73.511,0,0,0,3.4,27.036H102.724c-19.845-17.372-35.462-37.5-38.065-63.208C63.3,220.434,65.972,206.466,65.292,192.772Z" transform="translate(-36.428 -63.43)" opacity="0.2"/>
  <path id="Path_52" data-name="Path 52" d="M980.644,75.786V371.935l-15.266-9.923V75.786h-9.159l-3.816,276.3L937.9,341.4,947.823,71.97" transform="translate(-222.008 -17.033)" fill="none" stroke="#e0e0e0" stroke-miterlimit="10" stroke-width="1"/>
  <line id="Line_78" data-name="Line 78" x1="61.826" y2="3.435" transform="translate(715.9 80.126)" fill="none" stroke="#e0e0e0" stroke-miterlimit="10" stroke-width="1"/>
  <line id="Line_79" data-name="Line 79" x1="58.01" y2="2.29" transform="translate(715.9 95.392)" fill="none" stroke="#e0e0e0" stroke-miterlimit="10" stroke-width="1"/>
  <line id="Line_80" data-name="Line 80" x1="58.01" y2="1.527" transform="translate(715.9 113.711)" fill="none" stroke="#e0e0e0" stroke-miterlimit="10" stroke-width="1"/>
  <line id="Line_81" data-name="Line 81" x1="58.01" y2="2.29" transform="translate(715.9 130.503)" fill="none" stroke="#e0e0e0" stroke-miterlimit="10" stroke-width="1"/>
  <line id="Line_82" data-name="Line 82" x1="60.3" transform="translate(713.61 149.585)" fill="none" stroke="#e0e0e0" stroke-miterlimit="10" stroke-width="1"/>
  <line id="Line_83" data-name="Line 83" x1="61.826" y1="2.29" transform="translate(712.083 166.377)" fill="none" stroke="#e0e0e0" stroke-miterlimit="10" stroke-width="1"/>
  <line id="Line_84" data-name="Line 84" x1="61.826" y1="3.053" transform="translate(712.083 183.17)" fill="none" stroke="#e0e0e0" stroke-miterlimit="10" stroke-width="1"/>
  <line id="Line_85" data-name="Line 85" x1="61.826" y1="4.58" transform="translate(712.083 200.725)" fill="none" stroke="#e0e0e0" stroke-miterlimit="10" stroke-width="1"/>
  <line id="Line_86" data-name="Line 86" x1="65.643" y1="6.106" transform="translate(709.793 215.991)" fill="none" stroke="#e0e0e0" stroke-miterlimit="10" stroke-width="1"/>
  <line id="Line_87" data-name="Line 87" x1="65.643" y1="9.923" transform="translate(709.793 231.257)" fill="none" stroke="#e0e0e0" stroke-miterlimit="10" stroke-width="1"/>
  <line id="Line_88" data-name="Line 88" x1="67.933" y1="12.213" transform="translate(707.503 251.102)" fill="none" stroke="#e0e0e0" stroke-miterlimit="10" stroke-width="1"/>
  <line id="Line_89" data-name="Line 89" x1="67.933" y1="19.845" transform="translate(707.503 268.658)" fill="none" stroke="#e0e0e0" stroke-miterlimit="10" stroke-width="1"/>
  <line id="Line_90" data-name="Line 90" x1="71.749" y1="28.242" transform="translate(705.214 286.214)" fill="none" stroke="#e0e0e0" stroke-miterlimit="10" stroke-width="1"/>
  <line id="Line_91" data-name="Line 91" x1="71.749" y1="35.111" transform="translate(705.214 303.006)" fill="none" stroke="#e0e0e0" stroke-miterlimit="10" stroke-width="1"/>
  <path id="Path_53" data-name="Path 53" d="M779.317,75.023,767.1,335.3H751.076L761,75.023H743.443L731.993,335.3H714.438l9.923-260.274H702.989L695.356,335.3H676.273l8.4-257.984H664.824L660.244,335.3H642.689l5.343-260.274H630.476L626.66,335.3H609.867l3.816-260.274H593.838V335.3H573.993V75.023H555.674L558.727,335.3H542.7l-4.58-260.274H519.8L525.906,335.3H509.877L502.244,75.023H486.215L492.321,335.3h-14.5L466.369,75.023H451.1L463.316,335.3H448.05L431.258,75.023H412.939L434.311,335.3h-14.5L399.2,75.023H384.7L406.069,335.3H390.04L369.432,71.97h-14.5L378.591,335.3H363.325L338.9,71.97" transform="translate(-80.218 -17.033)" fill="none" stroke="#e0e0e0" stroke-miterlimit="10" stroke-width="1"/>
  <path id="Path_54" data-name="Path 54" d="M284.434,75.786l22.9,264.09-11.449,9.159L278.328,75.786H266.115l12.213,283.172-17.556,11.449L253.91,71.97" transform="translate(-60.1 -17.033)" fill="none" stroke="#e0e0e0" stroke-miterlimit="10" stroke-width="1"/>
  <line id="Line_92" data-name="Line 92" x2="70.223" transform="translate(177.018 88.522)" fill="none" stroke="#e0e0e0" stroke-miterlimit="10" stroke-width="1"/>
  <line id="Line_93" data-name="Line 93" x2="70.223" transform="translate(177.018 107.604)" fill="none" stroke="#e0e0e0" stroke-miterlimit="10" stroke-width="1"/>
  <line id="Line_94" data-name="Line 94" y1="2.29" x2="70.223" transform="translate(177.018 126.686)" fill="none" stroke="#e0e0e0" stroke-miterlimit="10" stroke-width="1"/>
  <line id="Line_95" data-name="Line 95" y1="3.816" x2="73.276" transform="translate(177.018 143.479)" fill="none" stroke="#e0e0e0" stroke-miterlimit="10" stroke-width="1"/>
  <line id="Line_96" data-name="Line 96" y1="3.053" x2="73.276" transform="translate(177.018 164.851)" fill="none" stroke="#e0e0e0" stroke-miterlimit="10" stroke-width="1"/>
  <line id="Line_97" data-name="Line 97" y1="3.816" x2="76.329" transform="translate(177.018 186.223)" fill="none" stroke="#e0e0e0" stroke-miterlimit="10" stroke-width="1"/>
  <line id="Line_98" data-name="Line 98" y1="7.633" x2="76.329" transform="translate(177.018 203.779)" fill="none" stroke="#e0e0e0" stroke-miterlimit="10" stroke-width="1"/>
  <line id="Line_99" data-name="Line 99" y1="18.319" x2="76.329" transform="translate(177.018 217.518)" fill="none" stroke="#e0e0e0" stroke-miterlimit="10" stroke-width="1"/>
  <line id="Line_100" data-name="Line 100" y1="26.715" x2="79.382" transform="translate(177.018 230.494)" fill="none" stroke="#e0e0e0" stroke-miterlimit="10" stroke-width="1"/>
  <line id="Line_101" data-name="Line 101" y1="30.532" x2="79.382" transform="translate(177.018 248.813)" fill="none" stroke="#e0e0e0" stroke-miterlimit="10" stroke-width="1"/>
  <line id="Line_102" data-name="Line 102" y1="33.165" x2="79.023" transform="translate(174.728 267.551)" fill="none" stroke="#e0e0e0" stroke-miterlimit="10" stroke-width="1"/>
  <line id="Line_103" data-name="Line 103" y1="41.218" x2="81.672" transform="translate(174.728 283.924)" fill="none" stroke="#e0e0e0" stroke-miterlimit="10" stroke-width="1"/>
  <line id="Line_104" data-name="Line 104" y1="46.561" x2="83.962" transform="translate(174.728 300.716)" fill="none" stroke="#e0e0e0" stroke-miterlimit="10" stroke-width="1"/>
  <line id="Line_105" data-name="Line 105" x1="468.659" y2="3.816" transform="translate(247.241 80.126)" fill="none" stroke="#e0e0e0" stroke-miterlimit="10" stroke-width="1"/>
  <line id="Line_106" data-name="Line 106" x1="468.659" y2="3.816" transform="translate(246.859 93.865)" fill="none" stroke="#e0e0e0" stroke-miterlimit="10" stroke-width="1"/>
  <line id="Line_107" data-name="Line 107" x1="468.659" y2="3.816" transform="translate(246.477 107.604)" fill="none" stroke="#e0e0e0" stroke-miterlimit="10" stroke-width="1"/>
  <line id="Line_108" data-name="Line 108" x1="468.659" y2="3.816" transform="translate(246.096 121.343)" fill="none" stroke="#e0e0e0" stroke-miterlimit="10" stroke-width="1"/>
  <line id="Line_109" data-name="Line 109" x1="468.659" y2="3.816" transform="translate(245.714 135.083)" fill="none" stroke="#e0e0e0" stroke-miterlimit="10" stroke-width="1"/>
  <line id="Line_110" data-name="Line 110" x1="462.553" y2="3.816" transform="translate(251.439 148.822)" fill="none" stroke="#e0e0e0" stroke-miterlimit="10" stroke-width="1"/>
  <line id="Line_111" data-name="Line 111" x1="462.553" y2="3.816" transform="translate(251.057 162.561)" fill="none" stroke="#e0e0e0" stroke-miterlimit="10" stroke-width="1"/>
  <line id="Line_112" data-name="Line 112" x1="462.553" y2="3.816" transform="translate(250.675 176.3)" fill="none" stroke="#e0e0e0" stroke-miterlimit="10" stroke-width="1"/>
  <line id="Line_113" data-name="Line 113" x1="462.553" y2="3.816" transform="translate(250.294 190.039)" fill="none" stroke="#e0e0e0" stroke-miterlimit="10" stroke-width="1"/>
  <line id="Line_114" data-name="Line 114" x1="457.973" y2="3.816" transform="translate(254.492 203.779)" fill="none" stroke="#e0e0e0" stroke-miterlimit="10" stroke-width="1"/>
  <line id="Line_115" data-name="Line 115" x1="457.973" y2="3.816" transform="translate(254.11 217.518)" fill="none" stroke="#e0e0e0" stroke-miterlimit="10" stroke-width="1"/>
  <line id="Line_116" data-name="Line 116" x1="457.973" y2="3.816" transform="translate(253.729 231.257)" fill="none" stroke="#e0e0e0" stroke-miterlimit="10" stroke-width="1"/>
  <line id="Line_117" data-name="Line 117" x1="454.92" y2="3.816" transform="translate(256.4 244.996)" fill="none" stroke="#e0e0e0" stroke-miterlimit="10" stroke-width="1"/>
  <line id="Line_118" data-name="Line 118" x1="454.92" y2="3.816" transform="translate(256.018 258.735)" fill="none" stroke="#e0e0e0" stroke-miterlimit="10" stroke-width="1"/>
  <line id="Line_119" data-name="Line 119" x1="452.63" y2="3.816" transform="translate(257.927 272.475)" fill="none" stroke="#e0e0e0" stroke-miterlimit="10" stroke-width="1"/>
  <line id="Line_120" data-name="Line 120" x1="452.63" y2="3.816" transform="translate(257.545 286.214)" fill="none" stroke="#e0e0e0" stroke-miterlimit="10" stroke-width="1"/>
  <line id="Line_121" data-name="Line 121" x1="452.63" y2="3.816" transform="translate(257.163 299.953)" fill="none" stroke="#e0e0e0" stroke-miterlimit="10" stroke-width="1"/>
  <path id="Path_55" data-name="Path 55" d="M831.847,466.574,762.388,416.96h-451.1L231.91,466.574" transform="translate(-54.892 -98.696)" fill="none" stroke="#e0e0e0" stroke-miterlimit="10" stroke-width="3"/>
  <path id="Path_56" data-name="Path 56" d="M1051.35,415.4s1.763-52.1,29.944-81.527a78.985,78.985,0,0,0,21.662-45.034,132.833,132.833,0,0,0,.664-24.28" transform="translate(-270.082 -101.205)" fill="none" stroke="#535461" stroke-miterlimit="10" stroke-width="2"/>
  <path id="Path_57" data-name="Path 57" d="M1136.28,235.6c-1.931,5.816-18.052,19.189-18.052,19.189s-4.938-20.365-3.007-26.181a11.1,11.1,0,1,1,21.068,6.984Z" transform="translate(-285.095 -90.894)" fill="#00bfa6"/>
  <path id="Path_58" data-name="Path 58" d="M1143.825,283.784c-4.778,3.816-25.585,6.3-25.585,6.3s6.923-19.777,11.7-23.608a11.1,11.1,0,1,1,13.886,17.313Z" transform="translate(-285.916 -101.08)" fill="#00bfa6"/>
  <path id="Path_59" data-name="Path 59" d="M1119,354.876c-6.06.893-25.265-7.48-25.265-7.48s15.96-13.579,22.021-14.5A11.1,11.1,0,0,1,1119,354.846Z" transform="translate(-280.117 -117.36)" fill="#00bfa6"/>
  <path id="Path_60" data-name="Path 60" d="M1087.635,405.085c-5.824,1.908-26.166-3.107-26.166-3.107s13.434-16.075,19.258-17.991a11.1,11.1,0,1,1,6.908,21.092Z" transform="translate(-272.478 -129.344)" fill="#00bfa6"/>
  <path id="Path_61" data-name="Path 61" d="M1088.381,284.969c2.832,5.435,20.876,16.083,20.876,16.083s1.641-20.884-1.183-26.326a11.1,11.1,0,0,0-19.693,10.243Z" transform="translate(-278.551 -102.196)" fill="#00bfa6"/>
  <path id="Path_62" data-name="Path 62" d="M1052.156,343.19c4.328,4.343,24.731,9.1,24.731,9.1s-4.679-20.418-9.007-24.761a11.1,11.1,0,1,0-15.725,15.664Z" transform="translate(-269.507 -115.337)" fill="#00bfa6"/>
  <path id="Path_63" data-name="Path 63" d="M1025.791,405.758c3.526,5.007,22.838,13.144,22.838,13.144s-1.16-20.922-4.694-25.952a11.1,11.1,0,1,0-18.144,12.785Z" transform="translate(-263.552 -130.483)" fill="#00bfa6"/>
  <path id="Path_64" data-name="Path 64" d="M1066.35,476.4s1.763-52.1,29.944-81.527a78.985,78.985,0,0,0,21.662-45.034,132.81,132.81,0,0,0,.664-24.28" transform="translate(-273.633 -115.645)" fill="none" stroke="#535461" stroke-miterlimit="10" stroke-width="2"/>
  <path id="Path_65" data-name="Path 65" d="M1151.28,296.6c-1.931,5.816-18.052,19.189-18.052,19.189s-4.938-20.365-3.007-26.181a11.1,11.1,0,1,1,21.068,6.984Z" transform="translate(-288.646 -105.334)" fill="#00bfa6"/>
  <path id="Path_66" data-name="Path 66" d="M1158.826,344.784c-4.778,3.816-25.586,6.3-25.586,6.3s6.923-19.777,11.7-23.608a11.1,11.1,0,1,1,13.886,17.313Z" transform="translate(-289.467 -115.519)" fill="#00bfa6"/>
  <path id="Path_67" data-name="Path 67" d="M1134,415.876c-6.06.893-25.265-7.48-25.265-7.48s15.96-13.579,22.021-14.5A11.1,11.1,0,0,1,1134,415.846Z" transform="translate(-283.667 -131.8)" fill="#00bfa6"/>
  <path id="Path_68" data-name="Path 68" d="M1102.635,466.085c-5.824,1.908-26.166-3.107-26.166-3.107s13.434-16.075,19.258-17.991a11.1,11.1,0,1,1,6.908,21.092Z" transform="translate(-276.029 -143.783)" fill="#00bfa6"/>
  <path id="Path_69" data-name="Path 69" d="M1103.381,345.969c2.832,5.435,20.876,16.082,20.876,16.082s1.641-20.884-1.183-26.326a11.1,11.1,0,0,0-19.693,10.243Z" transform="translate(-282.102 -116.636)" fill="#00bfa6"/>
  <path id="Path_70" data-name="Path 70" d="M1067.156,404.19c4.328,4.343,24.731,9.1,24.731,9.1s-4.679-20.418-9.007-24.761a11.1,11.1,0,1,0-15.725,15.664Z" transform="translate(-273.058 -129.776)" fill="#00bfa6"/>
  <path id="Path_71" data-name="Path 71" d="M1040.791,466.758c3.526,5.007,22.838,13.144,22.838,13.144s-1.16-20.922-4.694-25.952a11.1,11.1,0,1,0-18.144,12.785Z" transform="translate(-267.103 -144.922)" fill="#00bfa6"/>
  <path id="Path_72" data-name="Path 72" d="M242.951,148.685c.374-14.77,10.6-27.746,25.036-30.913l.412-.084a8.717,8.717,0,0,1,1.771-.168H841.415a24.425,24.425,0,0,1,21.044,11.694l.145.252a10.014,10.014,0,0,1,1.313,4.832l5.3,299.972H850.9l-6.106-293.1s0-8.4-7.633-9.159c-1.168-.114-15.334-.2-38.477-.252L785.268,385.426h-7.633l14.922-253.679c-101.746-.2-350.784.053-466.369.191L341.011,383.9h-7.633L320.066,131.946l-44,.053a18.479,18.479,0,0,0-15.945,9.159l-6.106,293.1H235.7Z" transform="translate(-77.009 -66.399)" fill="#e0e0e0"/>
  <path id="Path_73" data-name="Path 73" d="M235.539,503.294s-2.473-40.347,17.121-65.139a61.247,61.247,0,0,0,13.411-36.348A103.042,103.042,0,0,0,264.788,383" transform="translate(-76.947 -129.241)" fill="none" stroke="#535461" stroke-miterlimit="10" stroke-width="2"/>
  <path id="Path_74" data-name="Path 74" d="M284.7,359.19c-1.061,4.633-12.526,16.144-12.526,16.144s-5.343-15.357-4.252-19.983a8.61,8.61,0,1,1,16.792,3.816Z" transform="translate(-84.602 -121.11)" fill="#00bfa6"/>
  <path id="Path_75" data-name="Path 75" d="M294.428,395.66c-3.412,3.313-19.288,6.747-19.288,6.747s3.885-15.777,7.3-19.082a8.6,8.6,0,0,1,11.991,12.342Z" transform="translate(-86.344 -128.742)" fill="#00bfa6"/>
  <path id="Path_76" data-name="Path 76" d="M280.242,452.24c-4.58,1.137-20.052-3.916-20.052-3.916s11.3-11.655,15.93-12.793a8.6,8.6,0,1,1,4.122,16.708Z" transform="translate(-82.806 -141.616)" fill="#00bfa6"/>
  <path id="Path_77" data-name="Path 77" d="M259.806,493.346c-4.358,1.9-20.426-.473-20.426-.473s9.159-13.4,13.541-15.266a8.6,8.6,0,1,1,6.87,15.771Z" transform="translate(-77.88 -151.466)" fill="#00bfa6"/>
  <path id="Path_78" data-name="Path 78" d="M251.371,400.88c2.58,3.992,17.3,10.877,17.3,10.877s-.267-16.243-2.855-20.235a8.6,8.6,0,0,0-14.441,9.358Z" transform="translate(-80.39 -130.329)" fill="#00bfa6"/>
  <path id="Path_79" data-name="Path 79" d="M227.684,448.426c3.656,3.053,19.762,5.206,19.762,5.206s-5.114-15.418-8.778-18.456a8.606,8.606,0,1,0-10.984,13.251Z" transform="translate(-74.374 -141.123)" fill="#00bfa6"/>
  <path id="Path_80" data-name="Path 80" d="M211.935,498.676c3.091,3.61,18.594,8.473,18.594,8.473s-2.435-16.029-5.534-19.67a8.607,8.607,0,1,0-13.068,11.205Z" transform="translate(-70.89 -153.261)" fill="#00bfa6"/>
  <path id="Path_81" data-name="Path 81" d="M284.7,359.19c-1.061,4.633-12.526,16.144-12.526,16.144s-5.343-15.357-4.252-19.983a8.61,8.61,0,1,1,16.792,3.816Z" transform="translate(-84.602 -121.11)" fill="#fff" opacity="0.5"/>
  <path id="Path_82" data-name="Path 82" d="M294.428,395.66c-3.412,3.313-19.288,6.747-19.288,6.747s3.885-15.777,7.3-19.082a8.6,8.6,0,0,1,11.991,12.342Z" transform="translate(-86.344 -128.742)" fill="#fff" opacity="0.5"/>
  <path id="Path_83" data-name="Path 83" d="M280.242,452.24c-4.58,1.137-20.052-3.916-20.052-3.916s11.3-11.655,15.93-12.793a8.6,8.6,0,1,1,4.122,16.708Z" transform="translate(-82.806 -141.616)" fill="#fff" opacity="0.5"/>
  <path id="Path_84" data-name="Path 84" d="M259.806,493.346c-4.358,1.9-20.426-.473-20.426-.473s9.159-13.4,13.541-15.266a8.6,8.6,0,1,1,6.87,15.771Z" transform="translate(-77.88 -151.466)" fill="#fff" opacity="0.5"/>
  <path id="Path_85" data-name="Path 85" d="M251.371,400.88c2.58,3.992,17.3,10.877,17.3,10.877s-.267-16.243-2.855-20.235a8.6,8.6,0,0,0-14.441,9.358Z" transform="translate(-80.39 -130.329)" fill="#fff" opacity="0.5"/>
  <path id="Path_86" data-name="Path 86" d="M227.684,448.426c3.656,3.053,19.762,5.206,19.762,5.206s-5.114-15.418-8.778-18.456a8.606,8.606,0,1,0-10.984,13.251Z" transform="translate(-74.374 -141.123)" fill="#fff" opacity="0.5"/>
  <path id="Path_87" data-name="Path 87" d="M211.935,498.676c3.091,3.61,18.594,8.473,18.594,8.473s-2.435-16.029-5.534-19.67a8.607,8.607,0,1,0-13.068,11.205Z" transform="translate(-70.89 -153.261)" fill="#fff" opacity="0.5"/>
  <g id="Group_26" data-name="Group 26" transform="translate(291.595 218.724)" opacity="0.1">
    <path id="Path_88" data-name="Path 88" d="M409.957,337.291a1.935,1.935,0,0,1-.137-.191Z" transform="translate(-409.82 -337.1)" fill="url(#linear-gradient)"/>
  </g>
  <path id="Path_89" data-name="Path 89" d="M575.333,335.148c-.145,4.862,2.87,6.686,2.87,6.686l28.165,24.944c10.869,3.939,12.213,24.6,12.213,24.6,1.069,1.908,1.527,5.221,1.527,9.159-.13,12.213-3.58,29.234-3.58,29.234l.1.16-.1.5.1.16-.1.5a30.161,30.161,0,0,0,1.748,2.526c-3.053,6.251-8.74,16.311-11.2,18.456-3.4,2.954-10.19,24.929-10.19,24.929l.221-.053-.221.71h.145A31.958,31.958,0,0,0,593.346,489a34.39,34.39,0,0,1-1.641,7.808,15.381,15.381,0,0,0-.252,9.106,39.416,39.416,0,0,1,1.328,7.32,45.8,45.8,0,0,0,3.473,13.854c3.107,7.381,7.221,17.464,7.434,19.494.115,1.1.382,2.717.687,4.389l-.176.046-7.3,16.563s-2.038,4.58-6.106,4.58a2.8,2.8,0,0,0-2.8,3.122,2.832,2.832,0,0,0,.176,1.359h0v.046c0,.076.069.153.1.229l.069.13a1.744,1.744,0,0,0,.137.221l.092.13.168.206.115.13.2.2.137.13.229.183.168.122.267.168.2.122.3.153.229.115.328.137.26.107.366.122.29.092.412.1.328.076.45.076.359.061.5.053.389.046h3.137a7.747,7.747,0,0,0,1.214-.1c13.251-1.313,23.1-11.449,23.1-11.449v-.382h0v-.191l.046-.053s-.855-13.2-5.7-16.182a40.627,40.627,0,0,1-.763-7.442c0-9.159,2.717-18.372-4.755-33.463,0,0-.344-3.939,2.381-9.839a97.711,97.711,0,0,1,5.3-9.205l.336-.038-.542.717s8.831-.656,9.51-6.564a7.144,7.144,0,0,1,.344-1.443c2.046-5.938,11.922-14.357,16.3-14.96,4.755-.656,14.266,10.5,18.006,18.372.214.45.435.878.656,1.267,3.649,6.419,8.175,4.969,8.175,4.969-.16-.191-.3-.374-.443-.565a2.988,2.988,0,0,0,.443-.092,15.124,15.124,0,0,1-1.107-1.527c3.4,3.679,7.007,7.068,8.579,9.045,3.4,4.267,1.7,7.213,1.7,8.526,0,5.916-7.816,23.288-5.778,32.821,1.008,4.709-.145,10.22-1.572,14.586h-.3c-5.778,2.183-6.45,10.014-6.4,13.953v.359h0v1.649h0v.916s16.3,7.213,30.234,9.159c.489.069.954.122,1.4.16h.412l.878.053h1.572a3.13,3.13,0,0,0,.763-.061h.244q.473-.061.893-.153l.183-.046c.214-.053.412-.1.6-.16l.252-.084.45-.176.229-.107c.137-.069.267-.137.4-.214l.206-.16a4.443,4.443,0,0,0,.443-.328h0a3.824,3.824,0,0,0,.389-.389l.1-.122a3.441,3.441,0,0,0,.214-.29l.092-.153a2.572,2.572,0,0,0,.145-.29l.069-.153a3.273,3.273,0,0,0,.107-.336v-.115a3.4,3.4,0,0,0,.069-.45v-.084a3.561,3.561,0,0,0,0-.366c0-.046,0-.1,0-.145h0c.2-2.015-1.4-4.023-2.992-3.717-3.4.656-7.816-3.282-7.816-3.282L686.361,556.3c-.145-3.549.252-8.06,2.5-11.724,4.419-7.213,9.854-22.632,9.854-22.632s-.679-9.511,2.038-14.106,0-11.808,0-11.808L692.437,480h1.526l-.3-.656h.3s-10.19-22.632-14.266-25.257c-2.908-1.87-7.015-12.4-9.159-18.319.855-.45,1.328-.763,1.328-.763s2.381-28.539,2.381-46.561,12.213-25.257,12.213-25.257l28.3-16.747a14.05,14.05,0,0,0,8.5-10.5l-.084-.214c.061-.282.084-.443.084-.443l-.084-.214c.061-.282.084-.443.084-.443l-13.586-34.768c0,.107-.084.2-.122.3-.962-5.992-3.931-15.373-13.129-16.029-13.587-.985-18.319,5.908-15.625,6.564s14.266,5.251,14.266,5.251l4.58,7.381c-.3-.1-.466-.168-.466-.168a1.6,1.6,0,0,1,.664.481l.305.489c-.6-.168-.962-.313-.962-.313a1.257,1.257,0,0,1,.237.13,1.449,1.449,0,0,1,.191.122,2.177,2.177,0,0,1,.176.176,2.589,2.589,0,0,1,.176.191c.061.076.114.16.175.244l.092.137a10.874,10.874,0,0,1-1.038-.336c3.557,1.145,5.045,22.723,5.343,28.242l-17.594,7.839s-17.663,0-25.135,4.267c-6.557,3.74-9.717.664-10.388-.145q.687.878,1.214,1.694h0l-.191-.13-.175-.122-.145-.114-.16-.137-.053-.046a27.671,27.671,0,0,1-3.007-9.282,15.472,15.472,0,0,0-.244-12.518,3.817,3.817,0,0,0,.931.481,14.362,14.362,0,0,1-1.527-4.58c-.168-1.794.344-3.7-.42-5.343a4.107,4.107,0,0,0-.275-.481.217.217,0,0,0-.061-.176c-.763-1.664-2.633-2.58-3.816-4.03-.763-.977-1.2-2.168-1.931-3.175a7.053,7.053,0,0,0-8.068-2.244c-1.114.45-2.152,1.206-3.359,1.229a7.546,7.546,0,0,1-1.839-.321,14.5,14.5,0,0,0-10.839,2.03,19.617,19.617,0,0,0-7.114,8.4,16.792,16.792,0,0,0-1.588,5.343,47.529,47.529,0,0,0,.091,5.839c.069,3.2-.4,6.557.962,9.465.084.183.191.343.282.519a.154.154,0,0,0,.053.137c1.3,2.771,4.015,4.58,6.618,6.328l3.366,2.221.382.252a18.427,18.427,0,0,0-2.9-.061c-5.1.328-15.266-4.58-15.266-4.58l-10.61-9.6,5.175-21.235-.2.145.2-.8-.2.145.2-.8c-.1.076-.191.145-.29.214l5.381-8.747s11.549-4.58,14.266-5.251-2.038-7.541-15.624-6.564c-10,.725-12.64,11.747-13.335,17.556-.588-.649-.931-1.122-.931-1.122l-9.526,22.532a16.075,16.075,0,0,0-1.527,6.763C575.325,334.729,575.325,334.95,575.333,335.148ZM652.318,346.6l.275.412h0Zm-27.227.092a4.519,4.519,0,0,0,1.962-1.3,16.948,16.948,0,0,0,2.626.763,10.952,10.952,0,0,1-1.015,2.389c-.13-.511-.191-.824-.191-.824a32.219,32.219,0,0,0-3.381-1.038ZM619.344,489.5c.763-1.229,1.527-2.427,2.29-3.557A33.016,33.016,0,0,1,619.344,489.5Z" transform="translate(-157.398 -105.815)" fill="url(#linear-gradient-2)"/>
  <path id="Path_90" data-name="Path 90" d="M715.532,535.33l9.732,19.464s2.6,7.137,0,11.678-1.946,13.953-1.946,13.953-5.19,15.266-9.411,22.387-1.626,17.556-1.626,17.556l-16.869,1.946s6.488-12.655,4.58-22.067,5.519-26.593,5.519-32.447c0-1.3,1.626-4.221-1.626-8.434s-15.571-14.922-15.266-21.09Z" transform="translate(-184.218 -165.3)" fill="#f7bbc3"/>
  <path id="Path_91" data-name="Path 91" d="M608.366,529.38s-6.228,8.625-6.954,17.021a35.108,35.108,0,0,1-1.527,7.717,15.724,15.724,0,0,0-.244,9.007,40.253,40.253,0,0,1,1.267,7.244,46.651,46.651,0,0,0,3.313,13.739c2.969,7.3,6.87,17.273,7.1,19.281.328,3.244,1.946,11.03,1.946,11.03l12.976,4.87s-3.893-9.411-3.893-18.495,2.6-18.166-4.58-33.1c0,0-.328-3.893,2.29-9.732s12.655-21.09,12.655-21.09Z" transform="translate(-163.029 -163.891)" fill="#f7bbc3"/>
  <path id="Path_92" data-name="Path 92" d="M631.107,527.783c1.069,1.16-4.435,8.549-4.435,8.549s8.434-.649,9.083-6.488a7.287,7.287,0,0,1,.328-1.427c1.954-5.87,11.388-14.2,15.571-14.792,4.58-.649,13.625,10.381,17.2,18.166.206.45.412.863.626,1.252,3.488,6.351,7.808,4.916,7.808,4.916-2.29-2.824-2.763-5.061-2.046-6.87,2.839-7,24.1-6.793,24.1-6.793s-9.732-22.387-13.625-24.983-10.06-22.067-10.06-22.067-46.4-5.19-46.721-2.923-9.411,20.12-12.655,23.036-9.724,24.669-9.724,24.669c11.03-3.244,23.2,4.7,24.494,5.679Z" transform="translate(-164.795 -150.723)" opacity="0.1"/>
  <path id="Path_93" data-name="Path 93" d="M631.1,526.933c1.069,1.16-4.435,8.549-4.435,8.549s8.434-.649,9.083-6.488a7.285,7.285,0,0,1,.328-1.427c1.954-5.87,11.388-14.2,15.571-14.793,4.58-.649,13.625,10.381,17.2,18.166.206.45.412.862.626,1.252,3.488,6.351,7.808,4.916,7.808,4.916-2.29-2.824-2.763-5.061-2.046-6.87,2.839-7,24.1-6.793,24.1-6.793s-9.732-22.387-13.625-24.982-10.06-22.067-10.06-22.067-46.4-5.19-46.721-2.923-9.411,20.12-12.655,23.036-9.732,24.662-9.732,24.662c11.03-3.244,23.2,4.7,24.494,5.679Z" transform="translate(-164.793 -150.521)" fill="#565171"/>
  <path id="Path_94" data-name="Path 94" d="M712.548,638.84l8.923,15.09s4.221,3.893,7.465,3.244,6.488,9.083-6.816,7.137-28.875-9.083-28.875-9.083-1.458-13.144,6-16.029Z" transform="translate(-185.287 -189.802)" opacity="0.1"/>
  <path id="Path_95" data-name="Path 95" d="M610.889,631.826l-6.976,16.388s-1.946,4.58-5.839,4.58-5.19,8.114,7.465,6.816S627.6,648.252,627.6,648.252s-.977-15.571-6.816-16.548A24.892,24.892,0,0,0,610.889,631.826Z" transform="translate(-162.148 -188.009)" opacity="0.1"/>
  <path id="Path_96" data-name="Path 96" d="M712.548,639.69l8.923,15.09s4.221,3.893,7.465,3.244,6.488,9.083-6.816,7.137-28.875-9.083-28.875-9.083-1.458-13.144,6-16.029Z" transform="translate(-185.287 -190.003)" fill="#b77983"/>
  <path id="Path_97" data-name="Path 97" d="M610.889,632.716,603.912,649.1s-1.946,4.58-5.839,4.58-5.19,8.114,7.465,6.816S627.6,649.142,627.6,649.142s-.977-15.571-6.816-16.548A24.891,24.891,0,0,0,610.889,632.716Z" transform="translate(-162.148 -188.219)" fill="#b77983"/>
  <g id="Group_27" data-name="Group 27" transform="translate(441.749 322.409)" opacity="0.1">
    <path id="Path_98" data-name="Path 98" d="M630.553,473.52c-.328,2.29-9.411,20.12-12.655,23.036-2.977,2.679-8.694,21.235-9.61,24.242-.588.115-1.168.244-1.748.412,0,0,6.488-21.738,9.732-24.662s12.327-20.769,12.655-23.036c.061-.45,1.962-.611,4.946-.565C631.858,472.986,630.614,473.154,630.553,473.52Z" transform="translate(-606.54 -472.94)"/>
    <path id="Path_99" data-name="Path 99" d="M667.645,525.122c4.58-.649,13.625,10.381,17.2,18.166.206.45.412.862.626,1.252,2.015,3.664,4.3,4.732,5.877,4.984-1.046.191-4.58.351-7.5-4.984-.214-.389-.42-.8-.626-1.252-3.275-7.144-11.182-17.006-15.976-18.09Z" transform="translate(-620.908 -485.286)"/>
    <path id="Path_100" data-name="Path 100" d="M633.105,541.674l-.053-.053c-1.046-.763-9.159-6.106-18.052-6.435,9.5-.328,18.563,5.6,19.678,6.435l.053.053c.939,1.023-3.2,6.87-4.213,8.243a14.779,14.779,0,0,1-1.84.3S634.174,542.834,633.105,541.674Z" transform="translate(-608.543 -487.671)"/>
  </g>
  <path id="Path_101" data-name="Path 101" d="M739.237,306.969s0-19.792-12.976-20.769-17.556,5.839-14.922,6.488,13.625,5.19,13.625,5.19l7.137,12.007Z" transform="translate(-189.429 -106.305)" fill="#f7bbc3"/>
  <path id="Path_102" data-name="Path 102" d="M594.23,312.919s0-19.792,12.976-20.769,17.556,5.839,14.922,6.488-13.625,5.19-13.625,5.19l-7.137,12.007Z" transform="translate(-161.877 -107.713)" fill="#f7bbc3"/>
  <path id="Path_103" data-name="Path 103" d="M663.825,346.17s-.977,12.976,7.137,20.441-18.815,16.869-18.815,16.869L640.14,369.206s9.732-5.839,4.58-15.9Z" transform="translate(-172.744 -120.523)" fill="#f7bbc3"/>
  <path id="Path_104" data-name="Path 104" d="M652.086,352.454s2.923,4.58,10.06.328,24.013-4.259,24.013-4.259l16.869-7.786s-1.3-27.906-5.19-29.2c0,0,7.786,3.244,10.06-3.244l12.976,34.394s-.977,7.465-8.114,10.381l-26.929,16.548s-11.678,7.137-11.678,24.982-2.29,46.072-2.29,46.072-37.638,22.715-52.888-3.893c0,0,6.167-31.47,1.946-39.264,0,0-1.3-20.441-11.678-24.334l-26.914-24.654s-5.19-3.244-1.3-12.655l9.083-22.387s5.519,7.786,10.06,3.893l-5.19,22.067,10.381,9.732s9.732,4.87,14.6,4.58,10.381,1.946,10.381,1.946,2.29,12.976,12.655,11.678C643,367.376,662.794,366.407,652.086,352.454Z" transform="translate(-158.41 -111.557)" opacity="0.1"/>
  <path id="Path_105" data-name="Path 105" d="M652.081,350.766s2.923,4.58,10.06.328,24.013-4.221,24.013-4.221l16.869-7.786s-1.3-27.906-5.19-29.2c0,0,7.786,3.244,10.06-3.244l12.976,34.394s-.977,7.465-8.114,10.381l-26.929,16.563s-11.678,7.137-11.678,24.982-2.29,46.072-2.29,46.072-37.638,22.715-52.888-3.893c0,0,6.167-31.47,1.946-39.264,0,0-1.3-20.441-11.678-24.334l-26.929-24.662s-5.19-3.244-1.3-12.655l9.083-22.387s5.518,7.786,10.06,3.893l-5.19,22.067,10.381,9.732s9.732,4.87,14.6,4.58,10.381,1.946,10.381,1.946,2.29,12.976,12.655,11.678C643,365.688,662.79,364.719,652.081,350.766Z" transform="translate(-158.405 -111.166)" opacity="0.1"/>
  <path id="Path_106" data-name="Path 106" d="M674.59,365.33l.13.176Z" transform="translate(-180.899 -125.059)" fill="#d39999"/>
  <path id="Path_107" data-name="Path 107" d="M582.33,347.725l26.929,24.662c10.381,3.893,11.678,24.334,11.678,24.334,4.221,7.786-1.946,39.264-1.946,39.264,15.266,26.608,52.888,3.893,52.888,3.893s.076-.931.2-2.572c.107-1.435.252-3.42.412-5.778.214-3.053.458-6.74.687-10.739.511-8.74.977-18.922.977-26.982,0-17.846,11.678-24.982,11.678-24.982l20.2-12.411,6.732-4.137c7.137-2.923,8.114-10.381,8.114-10.381L707.906,307.5c-2.122,6.06-9.06,3.626-9.961,3.282,3.816,1.725,5.091,29.165,5.091,29.165l-16.869,7.786s-16.869,0-24.013,4.221c-6.106,3.587-9.091.84-9.854-.069,10.259,13.739-9.289,14.663-9.289,14.663-10.381,1.3-12.655-11.678-12.655-11.678s-5.519-2.29-10.381-1.946-14.6-4.58-14.6-4.58l-10.381-9.732,5.19-22.067c-4.58,3.893-10.06-3.893-10.06-3.893l-9.083,22.387C577.139,344.481,582.33,347.725,582.33,347.725Z" transform="translate(-158.411 -111.37)" fill="#b45181"/>
  <path id="Path_108" data-name="Path 108" d="M665.229,347.87a31.21,31.21,0,0,0,.313,6.106,15.891,15.891,0,0,1-18.319,9.564,11.449,11.449,0,0,0-1.153-8.518Z" transform="translate(-174.148 -120.926)" opacity="0.1"/>
  <circle id="Ellipse_5" data-name="Ellipse 5" cx="15.899" cy="15.899" r="15.899" transform="translate(460.748 209.915)" fill="#f7bbc3"/>
  <path id="Path_109" data-name="Path 109" d="M645.291,329.391a8.74,8.74,0,0,1-.489,4.763,8.625,8.625,0,0,1-1.527,1.954l-3.328,3.427a8.771,8.771,0,0,0-2.374,3.381c-.962,3.206,1.878,6.389,1.786,9.74a4.336,4.336,0,0,1-4.916,1.817,8.4,8.4,0,0,1-2.053-1.137l-3.259-2.221c-2.481-1.694-5.076-3.526-6.32-6.259-1.305-2.878-.862-6.206-.924-9.366a48.71,48.71,0,0,1-.084-5.778,17.019,17.019,0,0,1,1.527-5.3,19.242,19.242,0,0,1,6.793-8.266,13.472,13.472,0,0,1,10.35-2.007,6.983,6.983,0,0,0,1.755.313c1.153,0,2.145-.763,3.206-1.214a6.6,6.6,0,0,1,7.7,2.221c.7.992,1.107,2.175,1.839,3.137,1.091,1.435,2.87,2.343,3.61,3.984s.244,3.519.4,5.29a14.562,14.562,0,0,0,1.443,4.542c-1.8-.626-2.679-2.6-3.816-4.107a10.113,10.113,0,0,0-7.442-3.771c-.992-.046-2.832-.122-3.618.634C644.558,326.139,645.192,328.215,645.291,329.391Z" transform="translate(-168.392 -112.621)" opacity="0.1"/>
  <path id="Path_110" data-name="Path 110" d="M644.871,328.548a8.741,8.741,0,0,1-.489,4.763,8.624,8.624,0,0,1-1.526,1.954l-3.374,3.442a8.772,8.772,0,0,0-2.374,3.358c-.962,3.206,1.878,6.389,1.786,9.74a4.335,4.335,0,0,1-4.916,1.817,8.392,8.392,0,0,1-2.053-1.137l-3.214-2.191c-2.481-1.694-5.076-3.526-6.32-6.259-1.305-2.878-.862-6.206-.924-9.366a48.722,48.722,0,0,1-.084-5.778,17.021,17.021,0,0,1,1.527-5.3,19.242,19.242,0,0,1,6.793-8.266,13.472,13.472,0,0,1,10.35-2.007,6.986,6.986,0,0,0,1.755.313c1.153,0,2.145-.763,3.206-1.214a6.6,6.6,0,0,1,7.7,2.221c.7.992,1.107,2.175,1.839,3.137,1.091,1.435,2.87,2.343,3.61,3.984s.244,3.519.4,5.29a14.565,14.565,0,0,0,1.443,4.542c-1.8-.626-2.679-2.6-3.816-4.107a10.114,10.114,0,0,0-7.442-3.771c-.992-.046-2.832-.122-3.618.633C644.131,325.3,644.741,327.365,644.871,328.548Z" transform="translate(-168.293 -112.427)" fill="#74585e"/>
  <g id="Group_28" data-name="Group 28" transform="translate(421.174 196.123)" opacity="0.1">
    <path id="Path_111" data-name="Path 111" d="M674.707,365.483c-.092-.114-.137-.183-.137-.183Z" transform="translate(-602.068 -321.174)"/>
    <path id="Path_112" data-name="Path 112" d="M602.77,320.474a4.175,4.175,0,0,0,2.893-1.084l-.313,1.313A4.579,4.579,0,0,1,602.77,320.474Z" transform="translate(-585.072 -310.307)"/>
    <path id="Path_113" data-name="Path 113" d="M673.682,367.226c8.129,12.48-10.175,13.388-10.175,13.388a10.1,10.1,0,0,1-4.168-.3,10.844,10.844,0,0,0,2.542,0s19.617-.969,9.221-14.747a5.282,5.282,0,0,0,2.58,1.656Z" transform="translate(-598.463 -321.238)"/>
    <path id="Path_114" data-name="Path 114" d="M633.41,367.286a13.684,13.684,0,0,1-3.9-.466,10.562,10.562,0,0,0,2.29.145,21.281,21.281,0,0,1,6.007.6A19.081,19.081,0,0,0,633.41,367.286Z" transform="translate(-591.402 -321.534)"/>
    <path id="Path_115" data-name="Path 115" d="M581.031,336.677l9.083-22.387a16.581,16.581,0,0,0,1.175,1.427l-8.633,21.25c-3.893,9.411,1.3,12.655,1.3,12.655l26.929,24.662c10.381,3.893,11.678,24.334,11.678,24.334,4.221,7.786-1.946,39.264-1.946,39.264a24.239,24.239,0,0,0,15.953,12.152,24.114,24.114,0,0,1-17.556-12.48s6.167-31.47,1.946-39.264c0,0-1.3-20.441-11.678-24.334l-26.952-24.624S577.138,346.089,581.031,336.677Z" transform="translate(-579.583 -309.1)"/>
    <path id="Path_116" data-name="Path 116" d="M721.576,311.74a12.031,12.031,0,0,0,2.053.588c3.557,3.122,4.755,28.936,4.755,28.936l-16.869,7.785s-16.869,0-24.013,4.221c-3.5,2.069-5.977,2.03-7.633,1.458a10.593,10.593,0,0,0,5.977-1.778c7.137-4.221,24.013-4.221,24.013-4.221l16.869-7.786S725.469,313.038,721.576,311.74Z" transform="translate(-603.322 -308.496)"/>
    <path id="Path_117" data-name="Path 117" d="M738.22,311.451c2.465.321,5.854-.038,7.228-3.961l.763,2.023C744.082,312.535,740.189,311.978,738.22,311.451Z" transform="translate(-617.134 -307.49)"/>
  </g>
  <path id="Path_118" data-name="Path 118" d="M701.837,435.946c.511-8.74.977-18.922.977-26.982,0-17.846,11.678-24.982,11.678-24.982l20.2-12.411c-11.755,3.053-27.394,8.312-28.8,14.5-2.29,10.06-6.488,11.03-4.87,28.242a194.548,194.548,0,0,1,.809,21.632Z" transform="translate(-187.071 -126.536)" opacity="0.1"/>
  <path id="Path_119" data-name="Path 119" d="M698,488.36s-2.923,9.083,5.19,14.922" transform="translate(-186.319 -154.181)" opacity="0.1"/>
  <path id="Path_120" data-name="Path 120" d="M637.14,488.36s-.977,6.816-4.87,9.411" transform="translate(-170.881 -154.181)" opacity="0.1"/>
  <path id="Path_121" data-name="Path 121" d="M693.244,658.856s15.571,7.137,28.875,9.083c6.747.985,9.236-1.03,9.625-3.168.443,2.5-1.527,5.656-9.625,4.465-13.3-1.946-28.875-9.083-28.875-9.083a27.472,27.472,0,0,1-.107-3.244C693.16,658.093,693.244,658.856,693.244,658.856Z" transform="translate(-185.287 -194.079)" opacity="0.1"/>
  <path id="Path_122" data-name="Path 122" d="M605.266,660.954c12.655-1.3,22.067-11.358,22.067-11.358s-.481-7.679-2.786-12.587c2.588,4.847,3.114,13.235,3.114,13.235s-9.411,10.06-22.067,11.358c-6.465.664-9.289-1.13-9.984-3.053C596.671,660.206,599.541,661.542,605.266,660.954Z" transform="translate(-162.203 -189.368)" opacity="0.1"/>
  <path id="Path_123" data-name="Path 123" d="M628.2,223.636a28.623,28.623,0,1,0,5.954-17.464,28.623,28.623,0,0,0-5.954,17.464Z" transform="translate(-169.918 -84.745)" fill="url(#linear-gradient-3)"/>
  <path id="Path_124" data-name="Path 124" d="M629.58,223.969a27.578,27.578,0,1,0,5.732-16.792,27.577,27.577,0,0,0-5.732,16.792Z" transform="translate(-170.245 -85.078)" fill="#e0e0e0"/>
  <line id="Line_122" data-name="Line 122" y2="10.701" transform="translate(471.456 125.343)" fill="none" stroke="#535461" stroke-miterlimit="10" stroke-width="1"/>
  <line id="Line_123" data-name="Line 123" x1="11.167" y2="7.373" transform="translate(480.73 135.09)" fill="none" stroke="#535461" stroke-miterlimit="10" stroke-width="1"/>
  <line id="Line_124" data-name="Line 124" x2="13.075" y2="5.465" transform="translate(480.73 118.695)" fill="none" stroke="#535461" stroke-miterlimit="10" stroke-width="1"/>
  <line id="Line_125" data-name="Line 125" x1="0.717" y2="16.64" transform="translate(501.881 136.991)" fill="none" stroke="#535461" stroke-miterlimit="10" stroke-width="1"/>
  <line id="Line_126" data-name="Line 126" x1="14.739" y1="7.366" transform="translate(479.066 151.257)" fill="none" stroke="#535461" stroke-miterlimit="10" stroke-width="1"/>
  <line id="Line_127" data-name="Line 127" y2="9.289" transform="translate(471.456 152.447)" fill="none" stroke="#535461" stroke-miterlimit="10" stroke-width="1"/>
  <line id="Line_128" data-name="Line 128" x1="6.427" y1="2.847" transform="translate(459.564 142.464)" fill="none" stroke="#535461" stroke-miterlimit="10" stroke-width="1"/>
  <line id="Line_129" data-name="Line 129" x1="0.489" y1="7.778" transform="translate(501.393 115.428)" fill="none" stroke="#535461" stroke-miterlimit="10" stroke-width="1"/>
  <line id="Line_130" data-name="Line 130" x2="7.969" y2="2.275" transform="translate(506.163 132.243)" fill="none" stroke="#535461" stroke-miterlimit="10" stroke-width="1"/>
  <path id="Path_125" data-name="Path 125" d="M660.845,169.931l-6.175-10.7-10.221,1.664v11.884l10.93,5.709Z" transform="translate(-152.545 -37.688)" fill="#00bfa6"/>
  <path id="Path_126" data-name="Path 126" d="M637.09,207.3l6.4,3.275c2.137-2.855,10.93-6.183,10.93-6.183l-.916-7.3A27.539,27.539,0,0,0,637.09,207.3Z" transform="translate(-172.022 -85.234)" fill="#00bfa6"/>
  <path id="Path_127" data-name="Path 127" d="M626.607,183.459l-11.175-5.229-6.183,8.793,6.419,10.22,10.938-1.664Z" transform="translate(-144.213 -42.186)" fill="#00bfa6"/>
  <path id="Path_128" data-name="Path 128" d="M672.24,254.637v8.785a27.57,27.57,0,0,0,17.777-11.564l-7.793-3.2Z" transform="translate(-180.343 -97.441)" fill="#00bfa6"/>
  <path id="Path_129" data-name="Path 129" d="M136.3,490.662a24.013,24.013,0,1,0,4.984-14.647,24.013,24.013,0,0,0-4.984,14.647Z" transform="translate(-53.479 -149.042)" fill="url(#linear-gradient-4)"/>
  <path id="Path_130" data-name="Path 130" d="M137.46,490.935a23.128,23.128,0,1,0,4.8-14.113,23.126,23.126,0,0,0-4.8,14.113Z" transform="translate(-53.754 -149.315)" fill="#e0e0e0"/>
  <line id="Line_131" data-name="Line 131" y2="8.976" transform="translate(93.873 330.255)" fill="none" stroke="#535461" stroke-miterlimit="10" stroke-width="1"/>
  <line id="Line_132" data-name="Line 132" x1="9.373" y2="6.183" transform="translate(101.643 338.43)" fill="none" stroke="#535461" stroke-miterlimit="10" stroke-width="1"/>
  <line id="Line_133" data-name="Line 133" x2="10.968" y2="4.587" transform="translate(101.643 324.676)" fill="none" stroke="#535461" stroke-miterlimit="10" stroke-width="1"/>
  <line id="Line_134" data-name="Line 134" x1="0.595" y2="13.961" transform="translate(119.39 340.026)" fill="none" stroke="#535461" stroke-miterlimit="10" stroke-width="1"/>
  <line id="Line_135" data-name="Line 135" x1="12.365" y1="6.183" transform="translate(100.246 351.986)" fill="none" stroke="#535461" stroke-miterlimit="10" stroke-width="1"/>
  <line id="Line_136" data-name="Line 136" y2="7.793" transform="translate(93.873 352.986)" fill="none" stroke="#535461" stroke-miterlimit="10" stroke-width="1"/>
  <line id="Line_137" data-name="Line 137" x1="5.389" y1="2.389" transform="translate(83.897 344.613)" fill="none" stroke="#535461" stroke-miterlimit="10" stroke-width="1"/>
  <line id="Line_138" data-name="Line 138" x1="0.412" y1="6.518" transform="translate(118.978 321.943)" fill="none" stroke="#535461" stroke-miterlimit="10" stroke-width="1"/>
  <line id="Line_139" data-name="Line 139" x2="6.686" y2="1.908" transform="translate(122.977 336.041)" fill="none" stroke="#535461" stroke-miterlimit="10" stroke-width="1"/>
  <path id="Path_131" data-name="Path 131" d="M159.194,437.469l-5.183-8.969-8.572,1.389v9.969l9.167,4.786Z" transform="translate(-34.424 -101.427)" fill="#00bfa6"/>
  <path id="Path_132" data-name="Path 132" d="M143.75,476.971l5.343,2.748c1.794-2.389,9.159-5.183,9.159-5.183l-.763-6.106A23.1,23.1,0,0,0,143.75,476.971Z" transform="translate(-55.243 -149.464)" fill="#00bfa6"/>
  <path id="Path_133" data-name="Path 133" d="M130.476,448.811l-9.366-4.381-5.19,7.373,5.389,8.572,9.167-1.4Z" transform="translate(-27.436 -105.198)" fill="#00bfa6"/>
  <path id="Path_134" data-name="Path 134" d="M173.24,516.674v7.4a23.119,23.119,0,0,0,14.907-9.7l-6.534-2.679Z" transform="translate(-62.224 -159.704)" fill="#00bfa6"/>
  <path id="Path_135" data-name="Path 135" d="M113.2,528.472a24.013,24.013,0,1,0,4.984-14.648A24.013,24.013,0,0,0,113.2,528.472Z" transform="translate(-48.011 -157.992)" fill="url(#linear-gradient-5)"/>
  <path id="Path_136" data-name="Path 136" d="M114.36,528.745a23.128,23.128,0,1,0,4.8-14.113A23.126,23.126,0,0,0,114.36,528.745Z" transform="translate(-48.286 -158.265)" fill="#e0e0e0"/>
  <line id="Line_140" data-name="Line 140" y2="8.969" transform="translate(76.241 359.115)" fill="none" stroke="#535461" stroke-miterlimit="10" stroke-width="1"/>
  <line id="Line_141" data-name="Line 141" x1="9.366" y2="6.183" transform="translate(84.019 367.29)" fill="none" stroke="#535461" stroke-miterlimit="10" stroke-width="1"/>
  <line id="Line_142" data-name="Line 142" x2="10.961" y2="4.587" transform="translate(84.019 353.536)" fill="none" stroke="#535461" stroke-miterlimit="10" stroke-width="1"/>
  <line id="Line_143" data-name="Line 143" x1="0.595" y2="13.953" transform="translate(101.758 368.885)" fill="none" stroke="#535461" stroke-miterlimit="10" stroke-width="1"/>
  <line id="Line_144" data-name="Line 144" x1="12.358" y1="6.183" transform="translate(82.622 380.846)" fill="none" stroke="#535461" stroke-miterlimit="10" stroke-width="1"/>
  <line id="Line_145" data-name="Line 145" y2="7.793" transform="translate(76.241 381.846)" fill="none" stroke="#535461" stroke-miterlimit="10" stroke-width="1"/>
  <line id="Line_146" data-name="Line 146" x1="5.389" y1="2.389" transform="translate(66.265 373.473)" fill="none" stroke="#535461" stroke-miterlimit="10" stroke-width="1"/>
  <line id="Line_147" data-name="Line 147" x1="0.412" y1="6.518" transform="translate(101.346 350.803)" fill="none" stroke="#535461" stroke-miterlimit="10" stroke-width="1"/>
  <line id="Line_148" data-name="Line 148" x2="6.686" y2="1.908" transform="translate(105.345 364.901)" fill="none" stroke="#535461" stroke-miterlimit="10" stroke-width="1"/>
  <path id="Path_137" data-name="Path 137" d="M136.094,475.276l-5.183-8.976-8.572,1.4v9.969l9.175,4.786Z" transform="translate(-28.955 -110.375)" fill="#00bfa6"/>
  <path id="Path_138" data-name="Path 138" d="M120.65,514.781l5.343,2.748c1.794-2.389,9.159-5.183,9.159-5.183l-.763-6.106a23.1,23.1,0,0,0-13.739,8.541Z" transform="translate(-49.775 -158.414)" fill="#00bfa6"/>
  <path id="Path_139" data-name="Path 139" d="M107.378,486.619l-9.366-4.389-5.183,7.381,5.381,8.572,9.167-1.4Z" transform="translate(-21.97 -114.146)" fill="#00bfa6"/>
  <path id="Path_140" data-name="Path 140" d="M150.14,554.459v7.4a23.12,23.12,0,0,0,14.907-9.686l-6.534-2.679Z" transform="translate(-56.755 -168.651)" fill="#00bfa6"/>
</svg>
