<svg id="Group_53" data-name="Group 53" xmlns="http://www.w3.org/2000/svg" width="98.32" height="145" viewBox="0 0 98.32 145">
  <g id="Group_21" data-name="Group 21">
    <g id="Group_1" data-name="Group 1">
      <path id="Path_1" data-name="Path 1" d="M289.973,380.232H324.9V501.1a49.3,49.3,0,0,0,28.474,0V380.232h34.923V358.195h-98.32" transform="translate(-289.973 -358.195)" fill="#fff"/>
      <path id="Path_2" data-name="Path 2" d="M289.973,385.093V458.9a49.162,49.162,0,0,0,17.545,37.644h0a49,49,0,0,0,17.379,9.408V385.093Z" transform="translate(-289.973 -363.056)" fill="#3e692b"/>
      <path id="Path_3" data-name="Path 3" d="M367.356,505.955a49.027,49.027,0,0,0,17.378-9.407h0A49.159,49.159,0,0,0,402.279,458.9V385.094H367.356Z" transform="translate(-303.959 -363.057)" fill="#6cb54a"/>
    </g>
    <g id="Group_20" data-name="Group 20" transform="translate(12.713 45.123)">
      <g id="Group_4" data-name="Group 4">
        <g id="Group_2" data-name="Group 2">
          <path id="Path_4" data-name="Path 4" d="M377.727,445.9l-2.457,2.215a1.511,1.511,0,0,1-1.768.187l-11.63-6.7a1.512,1.512,0,0,1-.724-1.624l2.781-13.131a1.513,1.513,0,0,1,1.321-1.19l3.393-.36a36.2,36.2,0,1,0,9.261,24.181Q377.9,447.669,377.727,445.9Z" transform="translate(-305.491 -413.273)" fill="#fff"/>
        </g>
        <g id="Group_3" data-name="Group 3">
          <path id="Path_5" data-name="Path 5" d="M377.727,445.9l-2.457,2.215a1.511,1.511,0,0,1-1.768.187l-11.63-6.7a1.512,1.512,0,0,1-.724-1.624l2.781-13.131a1.513,1.513,0,0,1,1.321-1.19l3.393-.36a36.2,36.2,0,1,0,9.261,24.181Q377.9,447.669,377.727,445.9Z" transform="translate(-305.491 -413.273)" fill="none"/>
        </g>
      </g>
      <g id="Group_7" data-name="Group 7" transform="translate(55.625 12.025)">
        <g id="Group_5" data-name="Group 5">
          <path id="Path_6" data-name="Path 6" d="M380.914,427.951l-3.393.36a1.513,1.513,0,0,0-1.321,1.19l-2.781,13.131a1.511,1.511,0,0,0,.724,1.624l11.63,6.7a1.511,1.511,0,0,0,1.768-.187L390,448.556A36.059,36.059,0,0,0,380.914,427.951Z" transform="translate(-373.387 -427.951)"/>
        </g>
        <g id="Group_6" data-name="Group 6">
          <path id="Path_7" data-name="Path 7" d="M380.914,427.951l-3.393.36a1.513,1.513,0,0,0-1.321,1.19l-2.781,13.131a1.511,1.511,0,0,0,.724,1.624l11.63,6.7a1.511,1.511,0,0,0,1.768-.187L390,448.556A36.059,36.059,0,0,0,380.914,427.951Z" transform="translate(-373.387 -427.951)" fill="none"/>
        </g>
      </g>
      <path id="Path_8" data-name="Path 8" d="M344.336,443.515l-7.155,5.2a4.662,4.662,0,0,0-1.694,5.213l2.733,8.412a4.664,4.664,0,0,0,4.435,3.222H351.5a4.663,4.663,0,0,0,4.435-3.222l2.733-8.412a4.662,4.662,0,0,0-1.693-5.213l-7.155-5.2A4.664,4.664,0,0,0,344.336,443.515Z" transform="translate(-310.871 -418.578)"/>
      <g id="Group_10" data-name="Group 10" transform="translate(45.289 51.584)">
        <g id="Group_8" data-name="Group 8">
          <path id="Path_9" data-name="Path 9" d="M380.383,477.189a1.514,1.514,0,0,0-1.5-.949l-13.393.882a1.512,1.512,0,0,0-1.366,1.138l-3.3,13.01a1.512,1.512,0,0,0,.659,1.652l2.8,1.765a36.064,36.064,0,0,0,17.372-14.329Z" transform="translate(-360.771 -476.237)"/>
        </g>
        <g id="Group_9" data-name="Group 9">
          <path id="Path_10" data-name="Path 10" d="M380.383,477.189a1.514,1.514,0,0,0-1.5-.949l-13.393.882a1.512,1.512,0,0,0-1.366,1.138l-3.3,13.01a1.512,1.512,0,0,0,.659,1.652l2.8,1.765a36.064,36.064,0,0,0,17.372-14.329Z" transform="translate(-360.771 -476.237)" fill="none"/>
        </g>
      </g>
      <g id="Group_13" data-name="Group 13" transform="translate(8.815 54.035)">
        <g id="Group_11" data-name="Group 11">
          <path id="Path_11" data-name="Path 11" d="M338.636,492.361,333.13,480.12a1.512,1.512,0,0,0-1.544-.883l-13.343,1.453a1.511,1.511,0,0,0-1.317,1.194l-.676,3.239a36.057,36.057,0,0,0,19.5,11.271l2.527-2.292A1.513,1.513,0,0,0,338.636,492.361Z" transform="translate(-316.251 -479.228)"/>
        </g>
        <g id="Group_12" data-name="Group 12">
          <path id="Path_12" data-name="Path 12" d="M338.636,492.361,333.13,480.12a1.512,1.512,0,0,0-1.544-.883l-13.343,1.453a1.511,1.511,0,0,0-1.317,1.194l-.676,3.239a36.057,36.057,0,0,0,19.5,11.271l2.527-2.292A1.513,1.513,0,0,0,338.636,492.361Z" transform="translate(-316.251 -479.228)" fill="none"/>
        </g>
      </g>
      <ellipse id="Ellipse_1" data-name="Ellipse 1" cx="32.101" cy="32.795" rx="32.101" ry="32.795" transform="translate(4.339 3.114)" fill="none"/>
      <line id="Line_1" data-name="Line 1" x2="5.784" y2="7.119" transform="translate(43.229 45.811)" fill="none"/>
      <line id="Line_2" data-name="Line 2" x1="4.586" y2="7.944" transform="translate(24.577 46.305)" fill="none"/>
      <g id="Group_16" data-name="Group 16" transform="translate(24.076 0.008)">
        <g id="Group_14" data-name="Group 14">
          <path id="Path_13" data-name="Path 13" d="M359.55,418.38l-1-3.154a36.057,36.057,0,0,0-22.517-.277l-1.08,3.236a1.512,1.512,0,0,0,.536,1.7l10.8,7.976a1.513,1.513,0,0,0,1.778.014l10.922-7.8A1.514,1.514,0,0,0,359.55,418.38Z" transform="translate(-334.878 -413.282)"/>
        </g>
        <g id="Group_15" data-name="Group 15">
          <path id="Path_14" data-name="Path 14" d="M359.55,418.38l-1-3.154a36.057,36.057,0,0,0-22.517-.277l-1.08,3.236a1.512,1.512,0,0,0,.536,1.7l10.8,7.976a1.513,1.513,0,0,0,1.778.014l10.922-7.8A1.514,1.514,0,0,0,359.55,418.38Z" transform="translate(-334.878 -413.282)" fill="none"/>
        </g>
      </g>
      <line id="Line_3" data-name="Line 3" y2="10.147" transform="translate(36.206 14.877)" fill="none"/>
      <line id="Line_4" data-name="Line 4" y1="4.969" x2="8.292" transform="translate(47.701 27.83)" fill="none"/>
      <g id="Group_19" data-name="Group 19" transform="translate(0.18 13.287)">
        <g id="Group_17" data-name="Group 17">
          <path id="Path_15" data-name="Path 15" d="M322.027,443.742l-3.484-12.962a1.513,1.513,0,0,0-1.383-1.117l-3.3-.171a36.063,36.063,0,0,0-8.146,20.994l2.653,2.145a1.512,1.512,0,0,0,1.775.092l11.252-7.319A1.512,1.512,0,0,0,322.027,443.742Z" transform="translate(-305.711 -429.491)"/>
        </g>
        <g id="Group_18" data-name="Group 18">
          <path id="Path_16" data-name="Path 16" d="M322.027,443.742l-3.484-12.962a1.513,1.513,0,0,0-1.383-1.117l-3.3-.171a36.063,36.063,0,0,0-8.146,20.994l2.653,2.145a1.512,1.512,0,0,0,1.775.092l11.252-7.319A1.512,1.512,0,0,0,322.027,443.742Z" transform="translate(-305.711 -429.491)" fill="none"/>
        </g>
      </g>
      <line id="Line_5" data-name="Line 5" x2="8.363" y2="4.613" transform="translate(16.546 28.011)" fill="none"/>
    </g>
  </g>
  <path id="Path_17" data-name="Path 17" d="M311.461,398.007l5.394.351-3.826,4.216,1.015,5.416-4.857-2.191-4.767,3,.824-5.57-3.961-3.565,5.366-1.251,2.319-5.2Z" transform="translate(-292.017 -364.523)" fill="#fff"/>
  <path id="Path_18" data-name="Path 18" d="M391.145,396.969l5.394.351-3.826,4.216,1.014,5.416-4.857-2.191-4.767,3,.824-5.57-3.961-3.565,5.366-1.251,2.319-5.2Z" transform="translate(-306.419 -364.336)" fill="#fff"/>
</svg>
