<svg xmlns="http://www.w3.org/2000/svg" width="20.762" height="26.2" viewBox="0 0 20.762 26.2">
  <path id="padlock" d="M21.167,9.825H20.3V6.55A6.75,6.75,0,0,0,13.381,0,6.75,6.75,0,0,0,6.46,6.55V9.825H5.6A2.532,2.532,0,0,0,3,12.281V23.744A2.532,2.532,0,0,0,5.6,26.2H21.167a2.532,2.532,0,0,0,2.6-2.456V12.281A2.532,2.532,0,0,0,21.167,9.825ZM8.767,6.55a4.5,4.5,0,0,1,4.614-4.367A4.5,4.5,0,0,1,17.995,6.55V9.825H8.767Zm5.767,11.7v2.487a1.155,1.155,0,0,1-2.307,0V18.255a2.159,2.159,0,0,1-1.153-1.88,2.31,2.31,0,0,1,4.614,0A2.159,2.159,0,0,1,14.535,18.255Z" transform="translate(-3)" fill="#313131"/>
</svg>
