<svg xmlns="http://www.w3.org/2000/svg" width="24.524" height="28" viewBox="0 0 24.524 28">
  <path id="Union_1" data-name="Union 1" d="M-4035,28a21.045,21.045,0,0,1,4.094-10.962,13.226,13.226,0,0,1,2.7-2.6,7.48,7.48,0,0,0,5.473,2.362,7.482,7.482,0,0,0,5.473-2.362,13.224,13.224,0,0,1,2.695,2.6A21.064,21.064,0,0,1-4010.476,28H-4035Zm4.668-20.3a7.647,7.647,0,0,1,7.594-7.7,7.647,7.647,0,0,1,7.593,7.7,7.647,7.647,0,0,1-7.593,7.7A7.647,7.647,0,0,1-4030.332,7.7Z" transform="translate(4035)" fill="#313131"/>
</svg>
