<svg xmlns="http://www.w3.org/2000/svg" width="26.444" height="26.5" viewBox="0 0 26.444 26.5">
  <g id="phone-call" transform="translate(-0.539)">
    <g id="Group_79" data-name="Group 79" transform="translate(0.539 0)">
      <path id="Path_237" data-name="Path 237" d="M26.29,19.448l-3.7-3.7a2.46,2.46,0,0,0-4.094.925,2.517,2.517,0,0,1-2.906,1.585c-2.642-.66-6.208-4.094-6.868-6.868a2.394,2.394,0,0,1,1.585-2.906,2.46,2.46,0,0,0,.925-4.094l-3.7-3.7a2.638,2.638,0,0,0-3.566,0L1.46,3.2c-2.509,2.642.264,9.642,6.472,15.849s13.208,9.113,15.849,6.472l2.509-2.509A2.638,2.638,0,0,0,26.29,19.448Z" transform="translate(-0.539 0)" fill="#313131"/>
    </g>
  </g>
</svg>
