<svg xmlns="http://www.w3.org/2000/svg" width="867.705" height="563.519" viewBox="0 0 867.705 563.519">
  <g id="Group_106" data-name="Group 106" transform="translate(-870 -270)">
    <g id="undraw_authentication_fsn5" transform="translate(870 270.006)">
      <path id="Path_164" data-name="Path 164" d="M507.707,129.015c-55.618.074-109.154-15.692-160.36-33.207s-102.018-37.129-156.6-45.44c-35.1-5.342-75.024-4.851-102.465,14.546C61.866,83.575,54.217,114.461,50.527,143c-2.775,21.466-4.055,44,6.339,63.632,7.217,13.631,19.569,24.866,28.274,37.858,30.387,45.194,12.113,102.926-17.418,149.169-13.847,21.7-30.067,42.493-40.536,65.433S12.423,508.039,23.1,530.681c10.581,22.441,34.48,38.728,60.128,49.852,52.084,22.634,112.725,27.486,171.737,29.353,130.627,4.144,261.507-4.308,392.038-12.761,48.3-3.125,96.825-6.272,144.132-15.328,26.265-5.022,53.312-12.478,71.936-28.817,23.639-20.744,28.475-54.614,11.273-78.96C845.5,433.187,769.43,425.486,748.745,381.3c-11.406-24.323-1.57-52.218,12.917-75.663,31.072-50.306,84.555-95.366,85.455-151.632.618-38.639-27.2-76.333-68.736-93.127C734.839,43.292,675.47,47.816,644.964,80.6,613.594,114.372,556.815,128.963,507.707,129.015Z" transform="translate(-16.91 -47.46)" fill="#2bb07f" opacity="0.1"/>
      <path id="Path_165" data-name="Path 165" d="M1003.177,691.691s-9.145-6.034-18.207-1.741c0,0,2.79,5.372,14.264,4.866Z" transform="translate(-264.675 -211.505)" fill="#2bb07f"/>
      <path id="Path_166" data-name="Path 166" d="M1008.915,693.25s2.783,10.6-4.2,17.805c0,0-4.2-4.368,0-15.067Z" transform="translate(-269.252 -212.745)" fill="#2bb07f"/>
      <path id="Path_167" data-name="Path 167" d="M1019.047,677.3s-.677-9.011-21.027-6.019c0,0-.1,5.811,7.046,8.564S1015.483,680.276,1019.047,677.3Z" transform="translate(-268.015 -206.966)" fill="#2bb07f"/>
      <path id="Path_168" data-name="Path 168" d="M1025.948,679.5s8.6,2.76.93,21.846c0,0-5.677-1.265-6.7-8.862S1022.183,682.268,1025.948,679.5Z" transform="translate(-273.636 -209.226)" fill="#2bb07f"/>
      <path id="Path_169" data-name="Path 169" d="M1036.677,657.7s1.168-14.829-19.628-13.311c0,0-1.488,13.393,15.96,16.875Z" transform="translate(-272.877 -200.212)" fill="#2bb07f"/>
      <path id="Path_170" data-name="Path 170" d="M1053.779,635.44s-2.85-16.808-23.639-11.8c0,0-.074,14.531,20.246,15.8Z" transform="translate(-276.236 -194.69)" fill="#2bb07f"/>
      <path id="Path_171" data-name="Path 171" d="M1066.682,612.3s-4.777-16.369-25.372-11.473c0,0,4.9,14.725,24,14.494Z" transform="translate(-279.095 -188.856)" fill="#2bb07f"/>
      <path id="Path_172" data-name="Path 172" d="M1079.784,589.419s-4.665-16.987-24.554-11.9c0,0,6.637,16.139,23.237,14.777Z" transform="translate(-282.657 -182.88)" fill="#2bb07f"/>
      <path id="Path_173" data-name="Path 173" d="M1088.878,566.467s-3.586-20.774-22.128-16.176c0,0,5.387,18.9,20.767,19.2Z" transform="translate(-285.606 -175.986)" fill="#2bb07f"/>
      <path id="Path_174" data-name="Path 174" d="M1096.306,540.693s-4.308-20.938-23.066-14.881c0,0,7.351,19.792,21.734,17.746Z" transform="translate(-287.267 -169.609)" fill="#2bb07f"/>
      <path id="Path_175" data-name="Path 175" d="M1101.66,514.916s-6.838-20.945-21.34-20.38c0,0,6.987,22.121,20.127,24.554Z" transform="translate(-289.079 -161.883)" fill="#2bb07f"/>
      <path id="Path_176" data-name="Path 176" d="M1105.461,490.21s-7.441-25.209-19.241-23.267c0,0,5.149,19.271,18.825,27.2Z" transform="translate(-290.589 -154.797)" fill="#2bb07f"/>
      <path id="Path_177" data-name="Path 177" d="M1107.422,462.486s-6.979-21-18.6-21.846c0,0,4.747,20.67,18.371,27.307Z" transform="translate(-291.254 -148.092)" fill="#2bb07f"/>
      <path id="Path_178" data-name="Path 178" d="M1110.079,436.243s-8.7-21.027-16.369-21.5c0,0,3.78,20.707,15.625,24.956Z" transform="translate(-292.506 -141.463)" fill="#2bb07f"/>
      <path id="Path_179" data-name="Path 179" d="M1112.516,410.613s-5.35-22.835-13.036-24.733c0,0,1.049,18.683,12.262,26.444Z" transform="translate(-293.983 -134.077)" fill="#2bb07f"/>
      <path id="Path_180" data-name="Path 180" d="M1116.823,379.783s-5.625-18.207-11.853-20.983c0,0,1.228,21.466,10.417,25.432Z" transform="translate(-295.388 -127.146)" fill="#2bb07f"/>
      <path id="Path_181" data-name="Path 181" d="M1122.519,354.959l1.131-32.1s-11.645,24.2-1.972,37.731Z" transform="translate(-298.681 -117.947)" fill="#2bb07f"/>
      <path id="Path_182" data-name="Path 182" d="M1134.652,314.577s8.386-23.438,10.417-24.747c0,0-16.444,15.209-14.837,34.77Z" transform="translate(-301.825 -109.494)" fill="#2bb07f"/>
      <path id="Path_183" data-name="Path 183" d="M1043.041,662.154s14.747-1.927,14.308,18.914c0,0-13.326,2.173-17.679-15.067Z" transform="translate(-278.675 -204.774)" fill="#2bb07f"/>
      <path id="Path_184" data-name="Path 184" d="M1061.68,639.06s17.039-.052,15.625,21.28c0,0-14.308,2.56-19.026-17.247Z" transform="translate(-283.438 -198.875)" fill="#2bb07f"/>
      <path id="Path_185" data-name="Path 185" d="M1075.159,617.934s15.469-7.255,25.365,11.473c0,0-14.286,6.042-26.734-8.445Z" transform="translate(-287.407 -193.115)" fill="#2bb07f"/>
      <path id="Path_186" data-name="Path 186" d="M1088.24,593.494s15.841-7.716,25.142,10.573c0,0-16.5,5.685-26.451-7.679Z" transform="translate(-290.771 -186.8)" fill="#2bb07f"/>
      <path id="Path_187" data-name="Path 187" d="M1095.979,570.66s15.246-14.561,27.411.164c0,0-15.573,11.987-28.111,3.08Z" transform="translate(-292.908 -179.725)" fill="#2bb07f"/>
      <path id="Path_188" data-name="Path 188" d="M1102.891,543.313s15.335-14.881,27.4.685c0,0-17.21,12.225-27.954,2.441Z" transform="translate(-294.715 -172.728)" fill="#2bb07f"/>
      <path id="Path_189" data-name="Path 189" d="M1106.93,515.952s11.816-18.6,25.729-14.45c0,0-12.262,19.7-25.6,18.817Z" transform="translate(-295.889 -163.514)" fill="#2bb07f"/>
      <path id="Path_190" data-name="Path 190" d="M1111.505,491.272s11.905-23.423,23.17-19.346c0,0-8.586,18.006-23.475,23.3Z" transform="translate(-296.982 -155.977)" fill="#2bb07f"/>
      <path id="Path_191" data-name="Path 191" d="M1112.31,462.728s12.24-18.438,23.706-16.183c0,0-10.008,18.7-24.9,21.518Z" transform="translate(-296.962 -149.554)" fill="#2bb07f"/>
      <path id="Path_192" data-name="Path 192" d="M1114,435.924s9.487-20.692,17.2-20.834c0,0-4.554,20.544-16.555,24.346Z" transform="translate(-297.699 -141.553)" fill="#2bb07f"/>
      <path id="Path_193" data-name="Path 193" d="M1116.5,411.3s10.543-20.953,18.468-21c0,0-5.394,17.917-18.118,22.835Z" transform="translate(-298.339 -135.208)" fill="#2bb07f"/>
      <path id="Path_194" data-name="Path 194" d="M1118.63,382.121s7.887-17.337,14.42-19.3c0,0-3.943,21.131-13.549,23.9Z" transform="translate(-298.884 -128.175)" fill="#2bb07f"/>
      <path id="Path_195" data-name="Path 195" d="M1124.5,355.913l17.627-26.853s-4.516,26.489-20.2,31.995Z" transform="translate(-299.728 -119.534)" fill="#2bb07f"/>
      <path id="Path_196" data-name="Path 196" d="M1138.714,320.351s20.484-14.137,21.228-16.421c0,0-10.417,19.8-29.762,23.3Z" transform="translate(-301.84 -113.102)" fill="#2bb07f"/>
      <path id="Path_197" data-name="Path 197" d="M1143.105,309.68s23.52-22.612,29.524-22.59c0,0-19.4.885-30.09,21.384Z" transform="translate(-305.003 -108.792)" fill="#2bb07f"/>
      <path id="Path_198" data-name="Path 198" d="M1118.94,373.225l.856.112c4.42-34.591,10.863-55.06,18.14-57.568l-.283-.818C1129.937,317.629,1123.449,337.785,1118.94,373.225Z" transform="translate(-298.963 -115.923)" fill="#444053"/>
      <path id="Path_199" data-name="Path 199" d="M1110.2,475.112l1.295.1c.275-3.229.484-6.533.625-9.829,1.235-28.631,3.147-54.927,5.662-74.637l-.744-.93c-2.522,19.755-4.978,46.839-6.213,75.515C1110.684,468.609,1110.475,471.9,1110.2,475.112Z" transform="translate(-296.726 -135.085)" fill="#444053"/>
      <path id="Path_200" data-name="Path 200" d="M976.759,660.262c.223-.1,23.014-10.275,46.667-34.547a187.667,187.667,0,0,0,34.115-48.364c10.938-22.27,17.6-49.636,19.837-76.222l-1.347.632c-5.022,59.674-32.188,100.448-53.788,122.658-23.423,24.055-45.961,34.13-46.184,34.227Z" transform="translate(-262.394 -163.574)" fill="#444053"/>
      <path id="Path_201" data-name="Path 201" d="M808.192,132.69H93.239a6.369,6.369,0,0,0-6.369,6.369v18.557H814.561V139.059A6.369,6.369,0,0,0,808.192,132.69Z" transform="translate(-34.816 -69.275)" fill="#3f3d56"/>
      <path id="Path_202" data-name="Path 202" d="M86.87,166.19v417.6a12.843,12.843,0,0,0,12.842,12.843H801.719a12.842,12.842,0,0,0,12.842-12.842V166.19Z" transform="translate(-34.816 -77.849)" fill="#fff"/>
      <circle id="Ellipse_15" data-name="Ellipse 15" cx="2.976" cy="2.976" r="2.976" transform="translate(60.604 72.715)" fill="#fa5959" opacity="0.8"/>
      <circle id="Ellipse_16" data-name="Ellipse 16" cx="2.976" cy="2.976" r="2.976" transform="translate(68.788 72.715)" fill="#fed253" opacity="0.8"/>
      <circle id="Ellipse_17" data-name="Ellipse 17" cx="2.976" cy="2.976" r="2.976" transform="translate(76.973 72.715)" fill="#8ccf4d" opacity="0.8"/>
      <rect id="Rectangle_53" data-name="Rectangle 53" width="584.831" height="257.162" transform="translate(119.697 157.97)" opacity="0.05"/>
      <rect id="Rectangle_54" data-name="Rectangle 54" width="575.903" height="251.492" transform="translate(124.161 159.919)" fill="#3f3d56"/>
      <path id="Path_203" data-name="Path 203" d="M375.073,349.38a57.293,57.293,0,1,0,57.293,57.293,57.293,57.293,0,0,0-57.293-57.293Zm10.275,58.669v27.128H365.095V408.049a16.779,16.779,0,1,1,20.253,0Z" transform="translate(-93.915 -124.735)" fill="#2bb07f"/>
      <path id="Path_204" data-name="Path 204" d="M375.073,349.38a57.293,57.293,0,1,0,57.293,57.293,57.293,57.293,0,0,0-57.293-57.293Zm10.275,58.669v27.128H365.095V408.049a16.779,16.779,0,1,1,20.253,0Z" transform="translate(-93.915 -124.735)" opacity="0.05"/>
      <path id="Path_205" data-name="Path 205" d="M369.442,327.38A73.662,73.662,0,1,0,443.1,401.042a73.662,73.662,0,0,0-73.662-73.662Zm13.207,75.433v34.874H356.607V402.813a21.578,21.578,0,1,1,26.042,0Z" transform="translate(-88.284 -119.104)" fill="#2bb07f"/>
      <rect id="Rectangle_55" data-name="Rectangle 55" width="238.099" height="25.298" transform="translate(385.327 272.272)" fill="#fff"/>
      <rect id="Rectangle_56" data-name="Rectangle 56" width="51.34" height="25.298" transform="translate(572.086 318.404)" fill="#2bb07f"/>
      <path id="Path_206" data-name="Path 206" d="M562.569,428.088h-4.308l3.832-3.824a.379.379,0,0,0,0-.528.372.372,0,0,0-.528,0l-3.832,3.832v-4.316a.372.372,0,0,0-.372-.372.379.379,0,0,0-.372.372v4.316l-3.824-3.854a.372.372,0,0,0-.528,0,.379.379,0,0,0,0,.528l3.832,3.825h-4.316a.379.379,0,0,0-.372.372.372.372,0,0,0,.372.372h4.316l-3.832,3.832a.379.379,0,0,0,0,.528.387.387,0,0,0,.528,0l3.824-3.832v4.308a.372.372,0,1,0,.744,0v-4.308l3.832,3.832a.387.387,0,0,0,.528,0,.379.379,0,0,0,0-.528l-3.832-3.832h4.308a.361.361,0,1,0,0-.722Z" transform="translate(-153.804 -143.546)" fill="#2bb07f"/>
      <path id="Path_207" data-name="Path 207" d="M583.569,428.088h-4.308l3.832-3.824a.38.38,0,0,0,0-.528.372.372,0,0,0-.528,0l-3.832,3.832v-4.316a.372.372,0,0,0-.372-.372.379.379,0,0,0-.372.372v4.316l-3.825-3.854a.372.372,0,0,0-.528,0,.379.379,0,0,0,0,.528l3.832,3.825h-4.316a.379.379,0,0,0-.372.372.372.372,0,0,0,.372.372h4.316l-3.832,3.832a.379.379,0,0,0,0,.528.387.387,0,0,0,.528,0l3.824-3.832v4.308a.372.372,0,1,0,.744,0v-4.308l3.832,3.832a.387.387,0,0,0,.528,0,.38.38,0,0,0,0-.528l-3.832-3.832h4.308a.361.361,0,1,0,0-.722Z" transform="translate(-159.179 -143.546)" fill="#2bb07f"/>
      <path id="Path_208" data-name="Path 208" d="M604.569,428.088h-4.308l3.832-3.824a.379.379,0,0,0,0-.528.372.372,0,0,0-.528,0l-3.832,3.832v-4.316a.372.372,0,0,0-.372-.372.379.379,0,0,0-.372.372v4.316l-3.824-3.854a.372.372,0,0,0-.528,0,.38.38,0,0,0,0,.528l3.832,3.825h-4.315a.379.379,0,0,0-.372.372.372.372,0,0,0,.372.372h4.315l-3.832,3.832a.38.38,0,0,0,0,.528.387.387,0,0,0,.528,0l3.824-3.832v4.308a.372.372,0,1,0,.744,0v-4.308l3.832,3.832a.387.387,0,0,0,.528,0,.379.379,0,0,0,0-.528l-3.832-3.832h4.308a.361.361,0,1,0,0-.722Z" transform="translate(-164.554 -143.546)" fill="#2bb07f"/>
      <path id="Path_209" data-name="Path 209" d="M625.569,428.088h-4.308l3.832-3.824a.38.38,0,0,0,0-.528.372.372,0,0,0-.528,0l-3.832,3.832v-4.316a.372.372,0,0,0-.372-.372.379.379,0,0,0-.372.372v4.316l-3.824-3.854a.372.372,0,0,0-.528,0,.379.379,0,0,0,0,.528l3.832,3.825h-4.315a.379.379,0,0,0-.372.372.372.372,0,0,0,.372.372h4.315l-3.832,3.832a.379.379,0,0,0,0,.528.387.387,0,0,0,.528,0l3.824-3.832v4.308a.372.372,0,0,0,.744,0v-4.308l3.832,3.832a.387.387,0,0,0,.528,0,.38.38,0,0,0,0-.528l-3.832-3.832h4.308a.361.361,0,1,0,0-.722Z" transform="translate(-169.929 -143.546)" fill="#2bb07f"/>
      <path id="Path_210" data-name="Path 210" d="M646.569,428.088h-4.308l3.832-3.824a.38.38,0,0,0,0-.528.372.372,0,0,0-.528,0l-3.832,3.832v-4.316a.372.372,0,0,0-.372-.372.379.379,0,0,0-.372.372v4.316l-3.824-3.854a.372.372,0,0,0-.528,0,.38.38,0,0,0,0,.528l3.832,3.825h-4.316a.379.379,0,0,0-.372.372.372.372,0,0,0,.372.372h4.316l-3.832,3.832a.38.38,0,0,0,0,.528.387.387,0,0,0,.528,0l3.824-3.832v4.308a.372.372,0,0,0,.744,0v-4.308l3.832,3.832a.387.387,0,0,0,.528,0,.38.38,0,0,0,0-.528l-3.832-3.832h4.308a.361.361,0,1,0,0-.722Z" transform="translate(-175.303 -143.546)" fill="#2bb07f"/>
      <path id="Path_211" data-name="Path 211" d="M667.569,428.088h-4.308l3.832-3.824a.379.379,0,0,0,0-.528.372.372,0,0,0-.528,0l-3.832,3.832v-4.316a.372.372,0,0,0-.372-.372.379.379,0,0,0-.372.372v4.316l-3.824-3.854a.372.372,0,0,0-.528,0,.38.38,0,0,0,0,.528l3.832,3.825h-4.316a.379.379,0,0,0-.372.372.372.372,0,0,0,.372.372h4.316l-3.832,3.832a.38.38,0,0,0,0,.528.387.387,0,0,0,.528,0l3.824-3.832v4.308a.372.372,0,1,0,.744,0v-4.308l3.832,3.832a.387.387,0,0,0,.528,0,.38.38,0,0,0,0-.528l-3.832-3.832h4.308a.361.361,0,1,0,0-.722Z" transform="translate(-180.678 -143.546)" fill="#2bb07f"/>
      <path id="Path_212" data-name="Path 212" d="M688.569,428.088h-4.308l3.832-3.824a.38.38,0,0,0,0-.528.372.372,0,0,0-.528,0l-3.832,3.832v-4.316a.372.372,0,0,0-.372-.372.379.379,0,0,0-.372.372v4.316l-3.825-3.854a.372.372,0,0,0-.528,0,.379.379,0,0,0,0,.528l3.832,3.825h-4.315a.379.379,0,0,0-.372.372.372.372,0,0,0,.372.372h4.315l-3.832,3.832a.379.379,0,0,0,0,.528.387.387,0,0,0,.528,0l3.824-3.832v4.308a.372.372,0,1,0,.744,0v-4.308l3.832,3.832a.387.387,0,0,0,.528,0,.38.38,0,0,0,0-.528l-3.832-3.832h4.308a.361.361,0,1,0,0-.722Z" transform="translate(-186.053 -143.546)" fill="#2bb07f"/>
      <path id="Path_213" data-name="Path 213" d="M709.569,428.088h-4.308l3.832-3.824a.38.38,0,0,0,0-.528.372.372,0,0,0-.528,0l-3.832,3.832v-4.316a.372.372,0,0,0-.372-.372.379.379,0,0,0-.372.372v4.316l-3.825-3.854a.372.372,0,0,0-.528,0,.379.379,0,0,0,0,.528l3.832,3.825h-4.316a.379.379,0,0,0-.372.372.372.372,0,0,0,.372.372h4.316l-3.832,3.832a.379.379,0,0,0,0,.528.387.387,0,0,0,.528,0l3.825-3.832v4.308a.372.372,0,1,0,.744,0v-4.308l3.832,3.832a.387.387,0,0,0,.528,0,.38.38,0,0,0,0-.528l-3.832-3.832h4.308a.361.361,0,1,0,0-.722Z" transform="translate(-191.428 -143.546)" fill="#2bb07f"/>
      <path id="Path_214" data-name="Path 214" d="M730.569,428.088h-4.308l3.832-3.824a.379.379,0,0,0,0-.528.372.372,0,0,0-.528,0l-3.832,3.832v-4.316a.372.372,0,0,0-.372-.372.379.379,0,0,0-.372.372v4.316l-3.824-3.854a.372.372,0,0,0-.528,0,.379.379,0,0,0,0,.528l3.832,3.825h-4.315a.379.379,0,0,0-.372.372.372.372,0,0,0,.372.372h4.315l-3.832,3.832a.379.379,0,0,0,0,.528.387.387,0,0,0,.528,0l3.824-3.832v4.308a.372.372,0,1,0,.744,0v-4.308l3.832,3.832a.387.387,0,0,0,.528,0,.379.379,0,0,0,0-.528l-3.832-3.832h4.308a.361.361,0,1,0,0-.722Z" transform="translate(-196.802 -143.546)" fill="#2bb07f"/>
      <path id="Path_215" data-name="Path 215" d="M751.569,428.088h-4.308l3.832-3.824a.38.38,0,0,0,0-.528.372.372,0,0,0-.528,0l-3.832,3.832v-4.316a.372.372,0,0,0-.372-.372.379.379,0,0,0-.372.372v4.316l-3.824-3.854a.372.372,0,0,0-.528,0,.379.379,0,0,0,0,.528l3.832,3.825h-4.316a.379.379,0,0,0-.372.372.372.372,0,0,0,.372.372h4.316l-3.832,3.832a.379.379,0,0,0,0,.528.387.387,0,0,0,.528,0l3.824-3.832v4.308a.372.372,0,1,0,.744,0v-4.308l3.832,3.832a.387.387,0,0,0,.528,0,.38.38,0,0,0,0-.528l-3.832-3.832h4.308a.361.361,0,1,0,0-.722Z" transform="translate(-202.177 -143.546)" fill="#2bb07f"/>
      <path id="Path_216" data-name="Path 216" d="M772.569,428.088h-4.308l3.832-3.824a.38.38,0,0,0,0-.528.372.372,0,0,0-.528,0l-3.832,3.832v-4.316a.372.372,0,0,0-.372-.372.379.379,0,0,0-.372.372v4.316l-3.824-3.854a.372.372,0,0,0-.528,0,.379.379,0,0,0,0,.528l3.832,3.825h-4.316a.38.38,0,0,0-.372.372.372.372,0,0,0,.372.372h4.316l-3.832,3.832a.379.379,0,0,0,0,.528.387.387,0,0,0,.528,0l3.824-3.832v4.308a.372.372,0,0,0,.744,0v-4.308l3.832,3.832a.387.387,0,0,0,.528,0,.38.38,0,0,0,0-.528l-3.832-3.832h4.308a.361.361,0,1,0,0-.722Z" transform="translate(-207.552 -143.546)" fill="#2bb07f"/>
      <path id="Path_90" data-name="Path 90" d="M715.532,535.33l9.732,19.464s2.6,7.137,0,11.678-1.946,13.953-1.946,13.953-5.19,15.266-9.411,22.387-1.626,17.556-1.626,17.556l-16.869,1.946s6.488-12.655,4.58-22.067,5.519-26.593,5.519-32.447c0-1.3,1.626-4.221-1.626-8.434s-15.571-14.922-15.266-21.09Z" transform="translate(22.782 -87.306)" fill="#f7bbc3"/>
      <path id="Path_91" data-name="Path 91" d="M608.366,529.38s-6.228,8.625-6.954,17.021a35.108,35.108,0,0,1-1.527,7.717,15.724,15.724,0,0,0-.244,9.007,40.253,40.253,0,0,1,1.267,7.244,46.651,46.651,0,0,0,3.313,13.739c2.969,7.3,6.87,17.273,7.1,19.281.328,3.244,1.946,11.03,1.946,11.03l12.976,4.87s-3.893-9.411-3.893-18.495,2.6-18.166-4.58-33.1c0,0-.328-3.893,2.29-9.732s12.655-21.09,12.655-21.09Z" transform="translate(43.971 -85.897)" fill="#f7bbc3"/>
      <path id="Path_93" data-name="Path 93" d="M631.1,526.933c1.069,1.16-4.435,8.549-4.435,8.549s8.434-.649,9.083-6.488a7.285,7.285,0,0,1,.328-1.427c1.954-5.87,11.388-14.2,15.571-14.793,4.58-.649,13.625,10.381,17.2,18.166.206.45.412.862.626,1.252,3.488,6.351,7.808,4.916,7.808,4.916-2.29-2.824-2.763-5.061-2.046-6.87,2.839-7,24.1-6.793,24.1-6.793s-9.732-22.387-13.625-24.982-10.06-22.067-10.06-22.067-46.4-5.19-46.721-2.923-9.411,20.12-12.655,23.036-9.732,24.662-9.732,24.662c11.03-3.244,23.2,4.7,24.494,5.679Z" transform="translate(42.207 -72.527)" fill="#565171"/>
      <path id="Path_96" data-name="Path 96" d="M712.548,639.69l8.923,15.09s4.221,3.893,7.465,3.244,6.488,9.083-6.816,7.137-28.875-9.083-28.875-9.083-1.458-13.144,6-16.029Z" transform="translate(21.713 -112.009)" fill="#b77983"/>
      <path id="Path_97" data-name="Path 97" d="M610.889,632.716,603.912,649.1s-1.946,4.58-5.839,4.58-5.19,8.114,7.465,6.816S627.6,649.142,627.6,649.142s-.977-15.571-6.816-16.548A24.891,24.891,0,0,0,610.889,632.716Z" transform="translate(44.853 -110.225)" fill="#b77983"/>
      <path id="Path_101" data-name="Path 101" d="M739.237,306.969s0-19.792-12.976-20.769-17.556,5.839-14.922,6.488,13.625,5.19,13.625,5.19l7.137,12.007Z" transform="translate(17.571 -28.311)" fill="#f7bbc3"/>
      <path id="Path_102" data-name="Path 102" d="M594.23,312.919s0-19.792,12.976-20.769,17.556,5.839,14.922,6.488-13.625,5.19-13.625,5.19l-7.137,12.007Z" transform="translate(45.123 -29.719)" fill="#f7bbc3"/>
      <path id="Path_103" data-name="Path 103" d="M663.825,346.17s-.977,12.976,7.137,20.441-18.815,16.869-18.815,16.869L640.14,369.206s9.732-5.839,4.58-15.9Z" transform="translate(34.256 -42.529)" fill="#f7bbc3"/>
      <path id="Path_107" data-name="Path 107" d="M582.33,347.725l26.929,24.662c10.381,3.893,11.678,24.334,11.678,24.334,4.221,7.786-1.946,39.264-1.946,39.264,15.266,26.608,52.888,3.893,52.888,3.893s.076-.931.2-2.572c.107-1.435.252-3.42.412-5.778.214-3.053.458-6.74.687-10.739.511-8.74.977-18.922.977-26.982,0-17.846,11.678-24.982,11.678-24.982l20.2-12.411,6.732-4.137c7.137-2.923,8.114-10.381,8.114-10.381L707.906,307.5c-2.122,6.06-9.06,3.626-9.961,3.282,3.816,1.725,5.091,29.165,5.091,29.165l-16.869,7.786s-16.869,0-24.013,4.221c-6.106,3.587-9.091.84-9.854-.069,10.259,13.739-9.289,14.663-9.289,14.663-10.381,1.3-12.655-11.678-12.655-11.678s-5.519-2.29-10.381-1.946-14.6-4.58-14.6-4.58l-10.381-9.732,5.19-22.067c-4.58,3.893-10.06-3.893-10.06-3.893l-9.083,22.387C577.139,344.481,582.33,347.725,582.33,347.725Z" transform="translate(48.589 -33.375)" fill="#b45181"/>
      <circle id="Ellipse_5" data-name="Ellipse 5" cx="15.899" cy="15.899" r="15.899" transform="translate(667.748 287.909)" fill="#f7bbc3"/>
      <path id="Path_110" data-name="Path 110" d="M644.871,328.548a8.741,8.741,0,0,1-.489,4.763,8.624,8.624,0,0,1-1.526,1.954l-3.374,3.442a8.772,8.772,0,0,0-2.374,3.358c-.962,3.206,1.878,6.389,1.786,9.74a4.335,4.335,0,0,1-4.916,1.817,8.392,8.392,0,0,1-2.053-1.137l-3.214-2.191c-2.481-1.694-5.076-3.526-6.32-6.259-1.305-2.878-.862-6.206-.924-9.366a48.722,48.722,0,0,1-.084-5.778,17.021,17.021,0,0,1,1.527-5.3,19.242,19.242,0,0,1,6.793-8.266,13.472,13.472,0,0,1,10.35-2.007,6.986,6.986,0,0,0,1.755.313c1.153,0,2.145-.763,3.206-1.214a6.6,6.6,0,0,1,7.7,2.221c.7.992,1.107,2.175,1.839,3.137,1.091,1.435,2.87,2.343,3.61,3.984s.244,3.519.4,5.29a14.565,14.565,0,0,0,1.443,4.542c-1.8-.626-2.679-2.6-3.816-4.107a10.114,10.114,0,0,0-7.442-3.771c-.992-.046-2.832-.122-3.618.633C644.131,325.3,644.741,327.365,644.871,328.548Z" transform="translate(38.707 -34.433)" fill="#74585e"/>
      <path id="Path_124" data-name="Path 124" d="M629.58,223.969a27.578,27.578,0,1,0,5.732-16.792,27.577,27.577,0,0,0-5.732,16.792Z" transform="translate(36.755 -7.084)" fill="#e0e0e0"/>
    </g>
    <line id="Line_122" data-name="Line 122" y2="10.701" transform="translate(1549.457 473.343)" fill="none" stroke="#535461" stroke-miterlimit="10" stroke-width="1"/>
    <line id="Line_123" data-name="Line 123" x1="11.167" y2="7.373" transform="translate(1558.73 483.09)" fill="none" stroke="#535461" stroke-miterlimit="10" stroke-width="1"/>
    <line id="Line_124" data-name="Line 124" x2="13.075" y2="5.465" transform="translate(1558.73 466.695)" fill="none" stroke="#535461" stroke-miterlimit="10" stroke-width="1"/>
    <line id="Line_125" data-name="Line 125" x1="0.717" y2="16.64" transform="translate(1579.881 484.991)" fill="none" stroke="#535461" stroke-miterlimit="10" stroke-width="1"/>
    <line id="Line_126" data-name="Line 126" x1="14.739" y1="7.366" transform="translate(1557.066 499.257)" fill="none" stroke="#535461" stroke-miterlimit="10" stroke-width="1"/>
    <line id="Line_127" data-name="Line 127" y2="9.289" transform="translate(1549.457 500.447)" fill="none" stroke="#535461" stroke-miterlimit="10" stroke-width="1"/>
    <line id="Line_128" data-name="Line 128" x1="6.427" y1="2.847" transform="translate(1537.564 490.464)" fill="none" stroke="#535461" stroke-miterlimit="10" stroke-width="1"/>
    <line id="Line_129" data-name="Line 129" x1="0.489" y1="7.778" transform="translate(1579.393 463.428)" fill="none" stroke="#535461" stroke-miterlimit="10" stroke-width="1"/>
    <line id="Line_130" data-name="Line 130" x2="7.969" y2="2.275" transform="translate(1584.163 480.243)" fill="none" stroke="#535461" stroke-miterlimit="10" stroke-width="1"/>
    <path id="Path_125" data-name="Path 125" d="M660.845,169.931l-6.175-10.7-10.221,1.664v11.884l10.93,5.709Z" transform="translate(925.455 310.312)" fill="#00bfa6"/>
    <path id="Path_126" data-name="Path 126" d="M637.09,207.3l6.4,3.275c2.137-2.855,10.93-6.183,10.93-6.183l-.916-7.3A27.539,27.539,0,0,0,637.09,207.3Z" transform="translate(905.978 262.766)" fill="#00bfa6"/>
    <path id="Path_127" data-name="Path 127" d="M626.607,183.459l-11.175-5.229-6.183,8.793,6.419,10.22,10.938-1.664Z" transform="translate(933.787 305.814)" fill="#00bfa6"/>
  </g>
</svg>
